<svg width="150" height="105" viewBox="0 0 150 105" fill="none" xmlns="http://www.w3.org/2000/svg">
<path d="M104.789 0.17221C83.0063 10.7701 68.5488 9.92539 46.0239 0C6.58105 0 -16.034 104.53 13.471 104.53C38.3662 104.53 41.7166 73.9658 75.8111 73.9658C103.384 73.9658 119.567 104.153 137.959 104.153C167.447 104.145 137.494 0.17221 104.789 0.17221ZM46.279 52.2603C35.3639 52.2603 26.511 43.5404 26.511 32.7954C26.511 22.0631 35.3639 13.335 46.279 13.335C57.194 13.335 66.044 22.06 66.044 32.7954C66.0417 43.5375 57.1938 52.2603 46.279 52.2603ZM95.7712 34.8049C92.5444 33.8152 90.7513 30.4302 91.7711 27.2499C92.7714 24.0827 96.2091 22.3148 99.4311 23.3095C102.659 24.2946 104.467 27.6702 103.441 30.8448C102.442 34.0473 99.0039 35.7953 95.7712 34.8049ZM126.797 39.8878C125.771 43.0673 122.354 44.8278 119.127 43.8375C115.909 42.85 114.107 39.4677 115.114 36.2674C116.134 33.09 119.577 31.3377 122.779 32.3148C126.01 33.3252 127.812 36.6977 126.797 39.8878ZM118.919 25.765C117.889 28.9498 114.467 30.7074 111.244 29.7251C108.031 28.7346 106.219 25.3504 107.226 22.1574C108.247 18.9778 111.684 17.2224 114.896 18.2002C118.134 19.213 119.926 22.5802 118.919 25.765ZM110.702 44.4798C109.662 47.6676 106.245 49.4252 103.017 48.4355C99.8042 47.4451 98.0019 44.0674 99.0041 40.8731C100.025 37.7001 103.467 35.935 106.669 36.9151C109.896 37.9202 111.694 41.2899 110.702 44.4798ZM56.2686 33.0902C56.2686 38.6379 51.7188 43.128 46.0942 43.128C40.4585 43.128 35.9087 38.6379 35.9087 33.0902C35.9087 27.5603 40.4585 23.0649 46.0942 23.0649C51.7188 23.0649 56.2686 27.5603 56.2686 33.0902Z" fill="url(#paint0_linear_108_296)"/>
<defs>
<linearGradient id="paint0_linear_108_296" x1="75" y1="0" x2="75" y2="104.53" gradientUnits="userSpaceOnUse">
<stop stop-color="#EA7B22"/>
<stop offset="1" stop-color="#D95A41"/>
</linearGradient>
</defs>
</svg>
