<svg width="24" height="16" viewBox="0 0 24 16" fill="none" xmlns="http://www.w3.org/2000/svg">
<path d="M12 0C5.3828 0 0 5.38331 0 12C0 13.2412 0.192375 14.4697 0.570328 15.6524C0.602687 15.7533 0.666281 15.8414 0.751936 15.9039C0.837591 15.9664 0.940881 16 1.04691 16H22.9531C23.1709 16 23.3633 15.8594 23.4297 15.6524C23.8076 14.4697 24 13.2413 24 12C24 5.38331 18.6172 0 12 0ZM21.5 12.5H22.9653C22.9267 13.3456 22.8136 14.185 22.582 15H1.41797C1.18641 14.185 1.0733 13.3456 1.03467 12.5H2.49998C2.56566 12.5001 2.6307 12.4872 2.69138 12.462C2.75207 12.4369 2.80721 12.4001 2.85365 12.3537C2.90008 12.3072 2.93691 12.2521 2.96203 12.1914C2.98714 12.1307 3.00004 12.0657 3 12C3.00004 11.9343 2.98714 11.8693 2.96203 11.8086C2.93691 11.7479 2.90008 11.6928 2.85365 11.6463C2.80721 11.5999 2.75207 11.5631 2.69138 11.538C2.6307 11.5128 2.56566 11.4999 2.49998 11.5H1.0253C1.09941 9.86316 1.52592 8.31881 2.24161 6.94336L3.52242 7.68309C3.59844 7.72693 3.68465 7.75 3.77241 7.74998C3.9443 7.74998 4.11323 7.66064 4.20502 7.5C4.34367 7.26075 4.26164 6.95508 4.02239 6.81689L2.74444 6.0788C3.60368 4.74069 4.74107 3.60337 6.07922 2.7442L6.81731 4.02295C6.90909 4.18313 7.07808 4.27294 7.24992 4.27294C7.33491 4.27294 7.42083 4.25147 7.49991 4.20605C7.73916 4.06786 7.82119 3.76219 7.68253 3.52294L6.94298 2.24175C8.31853 1.52597 9.86297 1.09941 11.4999 1.0253V2.49998C11.4999 2.77636 11.7236 3 12 3C12.2763 3 12.5 2.77636 12.5 2.49998V1.0253C14.1369 1.09941 15.6814 1.52597 17.0569 2.24175L16.3174 3.52294C16.1787 3.76219 16.2607 4.06786 16.5 4.20605C16.576 4.24988 16.6622 4.27295 16.75 4.27294C16.9219 4.27294 17.0908 4.18308 17.1826 4.02295L17.9207 2.7442C19.2588 3.60337 20.3962 4.74069 21.2555 6.0788L19.9775 6.81689C19.7383 6.95508 19.6562 7.26075 19.7949 7.5C19.8867 7.66064 20.0557 7.74998 20.2275 7.74998C20.3153 7.75 20.4015 7.72693 20.4775 7.68309L21.7583 6.94336C22.474 8.31886 22.9005 9.86316 22.9746 11.5H21.4999C21.4342 11.4999 21.3692 11.5128 21.3085 11.538C21.2478 11.5631 21.1927 11.5999 21.1463 11.6463C21.0998 11.6928 21.063 11.7479 21.0379 11.8086C21.0128 11.8693 20.9999 11.9343 20.9999 12C20.9999 12.0657 21.0128 12.1307 21.0379 12.1914C21.0631 12.2521 21.0999 12.3072 21.1464 12.3536C21.1928 12.4001 21.2479 12.4369 21.3086 12.462C21.3693 12.4871 21.4343 12.5 21.5 12.5Z" fill="#fffff"/>
</svg>
