<svg width="22" height="20" viewBox="0 0 22 20" fill="none" xmlns="http://www.w3.org/2000/svg">
<path d="M20.375 0H2C1.17275 0 0.5 0.67275 0.5 1.5V3.75C0.5 4.57725 1.17275 5.25 2 5.25H3.875V18.375C3.875 18.9953 4.37975 19.5 5 19.5H17C17.6203 19.5 18.125 18.9953 18.125 18.375V5.25H20.375C21.2022 5.25 21.875 4.57725 21.875 3.75V1.5C21.875 0.67275 21.2022 0 20.375 0ZM6.875 3H15.125V14.6565C14.6646 14.7351 14.24 14.9546 13.9097 15.2848C13.5794 15.615 13.3598 16.0396 13.2811 16.5H8.71925C8.64062 16.0395 8.42097 15.6148 8.09061 15.2845C7.76025 14.9542 7.3355 14.7347 6.875 14.6561V3ZM17.375 18.375C17.375 18.5816 17.2066 18.75 17 18.75H5C4.79338 18.75 4.625 18.5816 4.625 18.375V3H6.125V15C6.125 15.0995 6.16451 15.1948 6.23483 15.2652C6.30516 15.3355 6.40054 15.375 6.5 15.375C7.32725 15.375 8 16.0478 8 16.875C8 16.9745 8.03951 17.0698 8.10983 17.1402C8.18016 17.2105 8.27554 17.25 8.375 17.25H13.625C13.7245 17.25 13.8198 17.2105 13.8902 17.1402C13.9605 17.0698 14 16.9745 14 16.875C14 16.0478 14.6727 15.375 15.5 15.375C15.5995 15.375 15.6948 15.3355 15.7652 15.2652C15.8355 15.1948 15.875 15.0995 15.875 15V3H17.375V18.375ZM21.125 3.75C21.125 4.16363 20.7886 4.5 20.375 4.5H18.125V3H19.25C19.3495 3 19.4448 2.96049 19.5152 2.89016C19.5855 2.81984 19.625 2.72446 19.625 2.625C19.625 2.52554 19.5855 2.43016 19.5152 2.35984C19.4448 2.28951 19.3495 2.25 19.25 2.25H2.75C2.65054 2.25 2.55516 2.28951 2.48484 2.35984C2.41451 2.43016 2.375 2.52554 2.375 2.625C2.375 2.72446 2.41451 2.81984 2.48484 2.89016C2.55516 2.96049 2.65054 3 2.75 3H3.875V4.5H2C1.58637 4.5 1.25 4.16363 1.25 3.75V1.5C1.25 1.08637 1.58637 0.75 2 0.75H20.375C20.7886 0.75 21.125 1.08637 21.125 1.5V3.75ZM11 11.625C12.2409 11.625 13.25 10.6159 13.25 9.375C13.25 8.13412 12.2409 7.125 11 7.125C9.75912 7.125 8.75 8.13412 8.75 9.375C8.75 10.6159 9.75912 11.625 11 11.625ZM11 7.875C11.8273 7.875 12.5 8.54775 12.5 9.375C12.5 10.2023 11.8273 10.875 11 10.875C10.1727 10.875 9.5 10.2023 9.5 9.375C9.5 8.54775 10.1727 7.875 11 7.875Z" fill="#EA7B22"/>
</svg>
