<svg width="150" height="150" viewBox="0 0 150 150" fill="none" xmlns="http://www.w3.org/2000/svg">
<g clip-path="url(#clip0_102_272)">
<path d="M81.1683 73.145L139.331 36.4625C137.133 33.0403 134.146 30.1945 130.622 28.1635L87.747 3.41648C83.8716 1.17833 79.4753 0 75 0C70.5248 0 66.1284 1.17833 62.253 3.41648L19.3776 28.1635C16.2827 29.9518 13.599 32.3716 11.5011 35.2656L71.6663 73.1453C73.0902 74.0378 74.7368 74.5112 76.4173 74.5111C78.0979 74.5111 79.7444 74.0376 81.1683 73.145ZM65.0082 33.542C65.0065 28.0238 69.4786 23.5489 74.9971 23.5471C80.5153 23.5453 84.9903 28.0175 84.9921 33.536C84.9938 39.0545 80.5217 43.5292 75.0032 43.5309H75.0002C69.4829 43.5307 65.0098 39.059 65.0082 33.542ZM74.4336 78.1408C72.7317 77.879 71.1013 77.2717 69.6429 76.3562L9.5053 38.492C7.6155 42.1233 6.62845 46.1565 6.62769 50.2501V99.7593C6.62881 104.234 7.80759 108.63 10.0456 112.506C12.2836 116.381 15.5021 119.599 19.3776 121.837L62.253 146.59C65.9625 148.734 70.1532 149.907 74.4367 150V149.975L74.4336 78.1408ZM22.1358 113.149C18.1379 110.204 15.0002 103.628 15.0002 98.4152C15.0002 93.2018 18.1533 91.0682 22.1513 93.7498C26.2716 96.505 29.7064 103.258 29.7064 108.75C29.7064 114.242 26.2562 116.195 22.1358 113.149ZM52.7848 98.6174C48.7869 95.6602 45.6337 89.0969 45.6337 83.8836C45.6337 78.6703 48.7869 76.5366 52.7848 79.2183C56.9051 81.9735 60.3368 88.7264 60.3368 94.2337C60.3368 99.7408 56.9051 101.663 52.7848 98.6174ZM141.122 39.7961L83.1917 76.3562C81.6842 77.3044 79.9931 77.923 78.2296 78.1715V149.804C81.5839 149.377 84.8194 148.285 87.747 146.593L130.622 121.837C134.499 119.599 137.717 116.38 139.955 112.504C142.193 108.629 143.372 104.232 143.372 99.7562V50.2501C143.371 46.6454 142.604 43.082 141.122 39.7961ZM94.6958 135.223C90.6979 137.893 87.5447 135.771 87.5447 130.558C87.5447 125.345 90.6979 118.781 94.6958 115.825C98.8162 112.763 102.248 114.701 102.248 120.208C102.248 125.715 98.8164 132.471 94.6958 135.223ZM94.6958 98.9051C90.6979 101.574 87.5447 99.4531 87.5447 94.2398C87.5447 89.0265 90.6979 82.4632 94.6958 79.506C98.8162 76.4571 102.245 78.3826 102.245 83.8773C102.245 89.372 98.8164 96.1532 94.6958 98.9051ZM128.219 113.532C124.221 116.201 121.068 114.083 121.068 108.866C121.068 103.65 124.221 97.0898 128.219 94.1326C132.34 91.0867 135.771 93.0092 135.771 98.5163C135.771 104.024 132.34 110.78 128.219 113.532ZM128.219 77.2134C124.221 79.8981 121.068 77.7553 121.068 72.5511C121.068 67.3469 124.221 60.7745 128.219 57.8173C132.34 54.7562 135.771 56.697 135.771 62.2011C135.771 67.7051 132.34 74.4613 128.219 77.2134Z" fill="url(#paint0_linear_102_272)"/>
</g>
<defs>
<linearGradient id="paint0_linear_102_272" x1="75" y1="0" x2="75" y2="150" gradientUnits="userSpaceOnUse">
<stop stop-color="#EA7B22"/>
<stop offset="1" stop-color="#D95A41"/>
</linearGradient>
<clipPath id="clip0_102_272">
<rect width="150" height="150" fill="white"/>
</clipPath>
</defs>
</svg>
