<svg width="20" height="21" viewBox="0 0 20 21" fill="none" xmlns="http://www.w3.org/2000/svg">
<path d="M3.88538 3.77774C4.26507 3.77774 4.57288 3.46994 4.57288 3.09024C4.57288 2.71054 4.26507 2.40274 3.88538 2.40274C3.50568 2.40274 3.19788 2.71054 3.19788 3.09024C3.19788 3.46994 3.50568 3.77774 3.88538 3.77774Z" fill="#EA7B22"/>
<path d="M6.70825 2.11742C7.08795 2.11742 7.39575 1.80961 7.39575 1.42992C7.39575 1.05022 7.08795 0.742416 6.70825 0.742416C6.32856 0.742416 6.02075 1.05022 6.02075 1.42992C6.02075 1.80961 6.32856 2.11742 6.70825 2.11742Z" fill="#EA7B22"/>
<path d="M1.0625 5.43736C1.4422 5.43736 1.75 5.12956 1.75 4.74986C1.75 4.37017 1.4422 4.06236 1.0625 4.06236C0.682804 4.06236 0.375 4.37017 0.375 4.74986C0.375 5.12956 0.682804 5.43736 1.0625 5.43736Z" fill="#EA7B22"/>
<path d="M16.1146 18.2833C16.4943 18.2833 16.8021 17.9755 16.8021 17.5958C16.8021 17.2161 16.4943 16.9083 16.1146 16.9083C15.7349 16.9083 15.4271 17.2161 15.4271 17.5958C15.4271 17.9755 15.7349 18.2833 16.1146 18.2833Z" fill="#EA7B22"/>
<path d="M18.9375 16.6237C19.3172 16.6237 19.625 16.3159 19.625 15.9362C19.625 15.5565 19.3172 15.2487 18.9375 15.2487C18.5578 15.2487 18.25 15.5565 18.25 15.9362C18.25 16.3159 18.5578 16.6237 18.9375 16.6237Z" fill="#EA7B22"/>
<path d="M13.2917 19.9429C13.6714 19.9429 13.9792 19.6351 13.9792 19.2554C13.9792 18.8757 13.6714 18.5679 13.2917 18.5679C12.9121 18.5679 12.6042 18.8757 12.6042 19.2554C12.6042 19.6351 12.9121 19.9429 13.2917 19.9429Z" fill="#EA7B22"/>
<path d="M5.04101 20.7411C4.64889 20.7408 4.25828 20.6928 3.87776 20.5981C3.26351 20.4483 2.68511 20.178 2.17611 19.803C1.66711 19.4279 1.23763 18.9555 0.912568 18.4132C-0.320807 16.37 0.147381 13.7664 1.90807 12.2656C2.22569 11.9947 2.71726 12.091 2.93313 12.4485C3.01648 12.5871 3.04799 12.7507 3.02206 12.9103C2.99613 13.0699 2.91444 13.2152 2.79151 13.3202C2.17642 13.8507 1.76874 14.5816 1.64053 15.3837C1.51233 16.1857 1.67187 17.0073 2.09094 17.703C2.36235 18.1548 2.73432 18.5378 3.17789 18.8223C3.62147 19.1068 4.1247 19.2851 4.64844 19.3434C5.44182 19.4376 6.24207 19.2128 6.92613 18.7996L13.742 14.6849C15.3226 13.7307 15.9977 11.5671 15.084 9.96248C14.8304 9.51415 14.4788 9.12889 14.0555 8.83545C13.6322 8.542 13.1481 8.34796 12.6393 8.2678C11.7971 8.13098 10.9349 8.34892 10.2041 8.78961L7.03063 10.7057C6.87478 10.7928 6.69119 10.8159 6.51861 10.7702C6.34603 10.7244 6.19798 10.6134 6.10572 10.4606C6.01345 10.3077 5.9842 10.125 6.02414 9.95099C6.06408 9.77698 6.17008 9.6253 6.31976 9.52798L9.43688 7.6463C10.6098 6.93817 12.0253 6.65973 13.3488 7.01517C14.0094 7.19116 14.6247 7.50669 15.1531 7.9405C15.6816 8.37431 16.1109 8.91633 16.4123 9.53005C17.5398 11.7954 16.6123 14.5577 14.446 15.8654L7.52151 20.046C6.77449 20.4994 5.91758 20.7395 5.04376 20.7404L5.04101 20.7411Z" fill="#EA7B22"/>
<path d="M7.91268 13.8833C7.06133 13.8847 6.22484 13.6603 5.48848 13.233C4.75212 12.8057 4.14224 12.1908 3.721 11.4509C2.41406 9.15536 3.31812 6.21905 5.58 4.85367L12.3306 0.778174C13.3756 0.147049 14.6137 -0.146514 15.8148 0.0714237C16.4895 0.190458 17.1309 0.452943 17.6954 0.84114C18.26 1.22934 18.7346 1.7342 19.0873 2.32161C19.4154 2.86202 19.6331 3.46212 19.7279 4.08719C19.8227 4.71227 19.7926 5.34992 19.6394 5.9633C19.4006 6.94285 18.8576 7.82156 18.0884 8.47336C17.7714 8.74217 17.2833 8.64524 17.0688 8.28911L17.0667 8.28567C16.9834 8.14746 16.9519 7.98412 16.9778 7.82482C17.0038 7.66552 17.0855 7.52062 17.2084 7.41599C17.8237 6.88559 18.2317 6.15472 18.3603 5.35257C18.4889 4.55042 18.3297 3.72864 17.911 3.03249C17.4388 2.2531 16.6768 1.69271 15.7921 1.47415C14.9074 1.25559 13.9722 1.39667 13.1913 1.86649L6.262 6.04992C4.72612 6.97736 4.02693 8.92574 4.799 10.5448C5.0053 10.9786 5.30012 11.3645 5.66449 11.6775C6.02886 11.9905 6.45472 12.2238 6.91467 12.3624C7.37462 12.501 7.85849 12.5418 8.33514 12.4821C8.8118 12.4225 9.27069 12.2637 9.68231 12.016L12.7974 10.135C12.9532 10.0479 13.1368 10.0248 13.3094 10.0706C13.482 10.1163 13.63 10.2273 13.7223 10.3801C13.8145 10.533 13.8438 10.7157 13.8039 10.8897C13.7639 11.0637 13.6579 11.2154 13.5082 11.3127L10.3925 13.1937C9.645 13.6462 8.78782 13.8851 7.91406 13.8847L7.91268 13.8833Z" fill="#EA7B22"/>
</svg>
