<svg width="22" height="17" viewBox="0 0 22 17" fill="none" xmlns="http://www.w3.org/2000/svg">
<path d="M0 2.78646V13.9233C0 15.4579 1.25189 16.7098 2.78646 16.7098H11.7875C13.322 16.7098 14.5739 15.4579 14.5739 13.9233V12.1195C14.5739 11.8144 14.3271 11.5676 14.022 11.5676C13.7169 11.5676 13.4701 11.8144 13.4701 12.1195V13.9233C13.4701 14.8521 12.7118 15.6104 11.783 15.6104H2.78646C1.85764 15.6104 1.09933 14.8521 1.09933 13.9233V2.78646C1.09933 1.85764 1.85764 1.09933 2.78646 1.09933H11.7875C12.7163 1.09933 13.4746 1.85764 13.4746 2.78646V4.59025C13.4746 4.89537 13.7214 5.14216 14.0265 5.14216C14.3316 5.14216 14.5784 4.89537 14.5784 4.59025V2.78646C14.5784 1.25189 13.3265 0 11.792 0H2.78646C1.25189 0 0 1.2474 0 2.78646Z" fill="#EA7B22"/>
<path d="M17.2931 12.5054C17.4008 12.6131 17.5399 12.6669 17.6835 12.6669C17.8271 12.6669 17.9662 12.6131 18.0739 12.5054L21.8385 8.74077C22.0539 8.52539 22.0539 8.17989 21.8385 7.96451L18.0739 4.19988C17.8585 3.9845 17.513 3.9845 17.2976 4.19988C17.0822 4.41526 17.0822 4.76076 17.2976 4.97614L20.1245 7.80298H9.80874C9.50362 7.80298 9.25684 8.04977 9.25684 8.35489C9.25684 8.66 9.50362 8.90679 9.80874 8.90679H20.12L17.2931 11.7336C17.0778 11.9445 17.0778 12.2945 17.2931 12.5054Z" fill="#EA7B22"/>
</svg>
