<svg width="100" height="45" viewBox="0 0 220 35" fill="none" xmlns="http://www.w3.org/2000/svg">
<g clip-path="url(#clip0_169_19)">
<path d="M12.6811 9.30995L4.14501 0.7768C2.63585 -0.732364 0.0592957 0.337984 0.0592957 2.46979V32.2706C0.0592957 33.507 0.892449 34.6604 2.11105 34.8738C3.68841 35.1466 5.05822 33.9399 5.05822 32.4129V8.75551L12.6841 16.3755L20.1943 8.86521V22.0652C20.1943 23.2571 21.0038 24.3423 22.172 24.5765C23.779 24.9027 25.1933 23.6811 25.1933 22.1304V2.58543C25.1933 0.453622 22.6137 -0.616726 21.1046 0.892438L12.6841 9.31292L12.6811 9.30995Z" fill="#3953A4"/>

<path d="M30.3108 2.57359V22.3232C30.3108 26.5156 26.91 29.9165 22.7175 29.9165C18.5251 29.9165 15.1243 26.5156 15.1243 22.3232V22.2906H10.1253V22.3232C10.1253 29.276 15.7617 34.9154 22.7175 34.9154C29.6704 34.9154 35.3097 29.279 35.3097 22.3232V2.57359C35.3097 1.19191 34.1919 0.0741272 32.8102 0.0741272C31.4286 0.0741272 30.3108 1.19191 30.3108 2.57359Z" fill="#E97B24"/>


<path d="M62.0448 6.85203C62.3353 7.15149 62.4806 7.54583 62.4806 8.04098V23.1771C62.4806 23.6545 62.3442 24.031 62.0715 24.3008C61.7987 24.5736 61.4399 24.71 60.9981 24.71C60.5564 24.71 60.2065 24.5736 59.9485 24.3008C59.6906 24.0281 59.5661 23.6545 59.5661 23.1771V12.6426L55.2194 20.8763C55.0148 21.2528 54.7925 21.5286 54.5553 21.7065C54.3151 21.8844 54.0364 21.9763 53.7103 21.9763C53.3841 21.9763 53.1054 21.8903 52.8652 21.7213C52.6251 21.5523 52.4057 21.2706 52.2011 20.8763L47.8278 12.7731V23.1801C47.8278 23.6396 47.6944 24.0103 47.4305 24.2919C47.1666 24.5736 46.8138 24.7129 46.369 24.7129C45.9243 24.7129 45.5774 24.5766 45.3194 24.3038C45.0615 24.031 44.937 23.6574 44.937 23.1801V8.04395C44.937 7.5488 45.0763 7.15446 45.358 6.855C45.6397 6.5585 46.0192 6.40729 46.4965 6.40729C47.1607 6.40729 47.6795 6.77495 48.0561 7.50729L53.731 18.3235L59.3822 7.50729C59.7558 6.77495 60.2599 6.40729 60.8914 6.40729C61.3688 6.40729 61.7512 6.55554 62.0418 6.855L62.0448 6.85203Z" fill="#3A54A4"/>
<path d="M66.3143 9.04906C65.9733 8.73478 65.8043 8.31969 65.8043 7.80971C65.8043 7.29974 65.9733 6.89058 66.3143 6.58222C66.6553 6.27683 67.1148 6.12265 67.696 6.12265C68.2771 6.12265 68.7129 6.27683 69.0628 6.58222C69.4127 6.88762 69.5876 7.29677 69.5876 7.80971C69.5876 8.32265 69.4156 8.73478 69.0776 9.04906C68.7367 9.36335 68.2771 9.52346 67.696 9.52346C67.1148 9.52346 66.6553 9.36631 66.3143 9.04906ZM66.5574 24.3127C66.258 24.0488 66.1097 23.6693 66.1097 23.1741V13.3068C66.1097 12.8116 66.258 12.438 66.5574 12.183C66.8569 11.928 67.2364 11.8005 67.696 11.8005C68.1555 11.8005 68.541 11.928 68.8464 12.183C69.1518 12.438 69.3059 12.8146 69.3059 13.3068V23.1741C69.3059 23.6693 69.1518 24.0488 68.8464 24.3127C68.541 24.5766 68.1555 24.71 67.696 24.71C67.2364 24.71 66.8569 24.5766 66.5574 24.3127Z" fill="#3A54A4"/>
<path d="M84.3383 12.2068C84.6289 12.4795 84.7742 12.8472 84.7742 13.3068V23.4054C84.7742 25.3653 84.2286 26.8477 83.1375 27.8529C82.0464 28.858 80.4364 29.362 78.3046 29.362C76.4456 29.362 74.8949 29.0122 73.6526 28.3124C73.0211 27.9388 72.7068 27.4852 72.7068 26.9574C72.7068 26.5838 72.7957 26.2844 72.9766 26.062C73.1545 25.8397 73.3887 25.73 73.6793 25.73C73.8335 25.73 74.0202 25.7685 74.2426 25.8456C74.465 25.9227 74.6933 26.0116 74.9335 26.1154C75.5472 26.3704 76.0957 26.5661 76.582 26.7024C77.0682 26.8388 77.6256 26.907 78.2572 26.907C80.4898 26.907 81.6076 25.8159 81.6076 23.6337V21.9971C81.231 22.6968 80.6884 23.2364 79.9709 23.6219C79.2564 24.0043 78.438 24.1971 77.5159 24.1971C76.4248 24.1971 75.4583 23.9361 74.6132 23.4173C73.7682 22.8984 73.11 22.169 72.6326 21.2321C72.1553 20.2952 71.9181 19.213 71.9181 17.9855C71.9181 16.758 72.1523 15.6728 72.6208 14.727C73.0892 13.7812 73.7504 13.0488 74.6014 12.527C75.4523 12.0081 76.4248 11.7472 77.5159 11.7472C78.4351 11.7472 79.2534 11.9399 79.9709 12.3224C80.6884 12.7049 81.231 13.2475 81.6076 13.9472V13.283C81.6076 12.8413 81.7529 12.4825 82.0434 12.2097C82.334 11.9369 82.7165 11.8006 83.1938 11.8006C83.6712 11.8006 84.0537 11.9369 84.3442 12.2097L84.3383 12.2068ZM80.7448 20.7192C81.317 20.055 81.6017 19.1418 81.6017 17.9825C81.6017 16.8232 81.317 15.8863 80.7448 15.2221C80.1725 14.558 79.3779 14.2259 78.355 14.2259C77.3321 14.2259 76.5553 14.558 75.9771 15.2221C75.396 15.8863 75.1084 16.8084 75.1084 17.9825C75.1084 19.1566 75.399 20.055 75.9771 20.7192C76.5553 21.3833 77.3499 21.7154 78.355 21.7154C79.3601 21.7154 80.1755 21.3833 80.7448 20.7192Z" fill="#3A54A4"/>
<path d="M99.7798 16.8855V23.1741C99.7798 23.6515 99.6404 24.028 99.3588 24.2979C99.0771 24.5677 98.6887 24.707 98.1965 24.707C97.7043 24.707 97.31 24.5706 97.0194 24.2979C96.7288 24.0251 96.5865 23.6515 96.5865 23.1741V16.8855C96.5865 15.9811 96.4027 15.3229 96.035 14.9049C95.6674 14.4868 95.0922 14.2793 94.3094 14.2793C93.3903 14.2793 92.652 14.5698 92.0976 15.148C91.5431 15.7291 91.2674 16.503 91.2674 17.4755V23.1771C91.2674 23.6545 91.1221 24.031 90.8315 24.3008C90.541 24.5736 90.1496 24.71 89.6545 24.71C89.1593 24.71 88.7709 24.5736 88.4922 24.3008C88.2105 24.0281 88.0712 23.6545 88.0712 23.1771V7.88681C88.0712 7.44503 88.2194 7.08627 88.5189 6.81349C88.8183 6.54072 89.2038 6.40433 89.6811 6.40433C90.1585 6.40433 90.541 6.53182 90.8315 6.78681C91.1221 7.0418 91.2674 7.39165 91.2674 7.8364V13.793C91.6943 13.1289 92.2606 12.6219 92.9663 12.272C93.672 11.9221 94.4784 11.7472 95.3828 11.7472C98.3151 11.7472 99.7798 13.4609 99.7798 16.8855Z" fill="#3A54A4"/>
<path d="M110.801 23.4825C110.801 23.8917 110.635 24.203 110.302 24.4164C109.97 24.6299 109.496 24.7189 108.885 24.6863L108.194 24.6359C105.33 24.4313 103.898 22.8984 103.898 20.0342V14.4601H102.62C102.161 14.4601 101.805 14.3593 101.559 14.1547C101.313 13.9501 101.188 13.6536 101.188 13.2593C101.188 12.865 101.313 12.5685 101.559 12.3639C101.805 12.1593 102.161 12.0585 102.62 12.0585H103.898V9.70728C103.898 9.24771 104.043 8.88006 104.334 8.60729C104.625 8.33451 105.016 8.19812 105.511 8.19812C106.006 8.19812 106.371 8.33451 106.661 8.60729C106.952 8.88006 107.097 9.24771 107.097 9.70728V12.0585H109.271C109.73 12.0585 110.086 12.1593 110.332 12.3639C110.578 12.5685 110.703 12.8679 110.703 13.2593C110.703 13.6507 110.578 13.9501 110.332 14.1547C110.086 14.3593 109.73 14.4601 109.271 14.4601H107.097V20.2625C107.097 21.5226 107.676 22.1987 108.835 22.2817L109.526 22.3321C110.377 22.3825 110.804 22.7679 110.804 23.4825H110.801Z" fill="#3A54A4"/>
<path d="M121.934 12.0407C122.165 11.8954 122.414 11.8243 122.687 11.8243C123.078 11.8243 123.431 11.9577 123.749 12.2216C124.063 12.4854 124.22 12.8146 124.22 13.2059C124.22 13.3927 124.17 13.5884 124.066 13.793L117.086 28.4162C116.796 28.9943 116.345 29.2849 115.731 29.2849C115.34 29.2849 114.993 29.1604 114.697 28.9143C114.397 28.6682 114.249 28.3569 114.249 27.9803C114.249 27.7935 114.299 27.5801 114.403 27.3399L116.14 23.6841L111.385 13.79C111.299 13.621 111.257 13.4224 111.257 13.203C111.257 12.8116 111.423 12.4795 111.755 12.2067C112.087 11.934 112.467 11.7976 112.894 11.7976C113.184 11.7976 113.448 11.8717 113.685 12.014C113.923 12.1593 114.112 12.3846 114.249 12.693L117.828 20.5946L121.382 12.7197C121.519 12.4143 121.703 12.186 121.931 12.0437L121.934 12.0407Z" fill="#3A54A4"/>
<path d="M131.022 23.355C131.022 22.9458 131.128 22.6345 131.342 22.421C131.555 22.2076 131.89 22.086 132.353 22.0504L133.171 22C133.871 21.9674 134.399 21.745 134.757 21.3359C135.116 20.9267 135.294 20.3041 135.294 19.4709V8.04395C135.294 7.5488 135.442 7.15446 135.742 6.855C136.038 6.5585 136.436 6.40729 136.931 6.40729C137.426 6.40729 137.847 6.55554 138.146 6.855C138.443 7.15446 138.594 7.5488 138.594 8.04395V19.4709C138.594 22.6909 136.999 24.4224 133.815 24.6596L132.996 24.71C131.683 24.7604 131.028 24.3097 131.028 23.355H131.022Z" fill="#3A54A4"/>
<path d="M151.489 13.037C152.334 13.8968 152.755 15.2073 152.755 16.9626V23.2008C152.755 23.6604 152.618 24.0221 152.346 24.289C152.073 24.5528 151.696 24.6863 151.222 24.6863C150.777 24.6863 150.415 24.5499 150.134 24.2771C149.852 24.0043 149.713 23.6456 149.713 23.2038V22.6405C149.422 23.3046 148.966 23.8264 148.346 24.2C147.723 24.5736 147.003 24.7634 146.184 24.7634C145.366 24.7634 144.589 24.5914 143.91 24.2534C143.228 23.9124 142.692 23.444 142.3 22.848C141.909 22.252 141.713 21.5879 141.713 20.8526C141.713 19.9334 141.947 19.207 142.416 18.6793C142.884 18.1515 143.646 17.7661 144.705 17.5289C145.76 17.2917 147.219 17.1701 149.078 17.1701H149.719V16.583C149.719 15.7469 149.541 15.1391 149.182 14.7537C148.823 14.3682 148.245 14.1785 147.445 14.1785C146.949 14.1785 146.448 14.2526 145.935 14.3949C145.425 14.5402 144.818 14.7477 144.121 15.0205C143.676 15.2429 143.353 15.3526 143.148 15.3526C142.843 15.3526 142.591 15.2429 142.395 15.0205C142.2 14.7981 142.102 14.5105 142.102 14.1518C142.102 13.8612 142.173 13.6122 142.318 13.3987C142.463 13.1852 142.707 12.9865 143.047 12.7968C143.643 12.4736 144.355 12.2186 145.182 12.0289C146.009 11.8421 146.822 11.7472 147.625 11.7472C149.363 11.7472 150.656 12.1771 151.498 13.037H151.489ZM148.906 21.6027C149.443 21.0305 149.713 20.2952 149.713 19.3909V18.8542H149.253C148.112 18.8542 147.225 18.9046 146.594 19.0084C145.962 19.1121 145.511 19.2901 145.239 19.545C144.966 19.8 144.829 20.1499 144.829 20.5946C144.829 21.1402 145.022 21.5879 145.405 21.9378C145.787 22.2876 146.262 22.4626 146.825 22.4626C147.676 22.4626 148.373 22.1779 148.909 21.6057L148.906 21.6027Z" fill="#3A54A4"/>
<path d="M158.264 23.9688C157.318 23.441 156.588 22.6909 156.078 21.7184C155.568 20.7458 155.311 19.6132 155.311 18.3175C155.311 17.0219 155.58 15.8774 156.117 14.8782C156.654 13.882 157.407 13.1111 158.379 12.5655C159.352 12.02 160.467 11.7472 161.73 11.7472C162.394 11.7472 163.064 11.8421 163.737 12.0289C164.41 12.2157 165.003 12.4736 165.513 12.7968C166.059 13.1556 166.331 13.6062 166.331 14.1518C166.331 14.5283 166.242 14.8308 166.061 15.0591C165.881 15.2874 165.649 15.403 165.359 15.403C165.172 15.403 164.976 15.3615 164.772 15.2755C164.567 15.1895 164.363 15.0887 164.158 14.9701C163.781 14.7477 163.426 14.5728 163.085 14.4453C162.744 14.3178 162.352 14.2526 161.908 14.2526C160.852 14.2526 160.037 14.5965 159.467 15.2874C158.895 15.9782 158.611 16.9714 158.611 18.2671C158.611 19.5628 158.895 20.5294 159.467 21.2202C160.037 21.9111 160.852 22.255 161.908 22.255C162.335 22.255 162.714 22.1927 163.046 22.0623C163.378 21.9348 163.749 21.7599 164.158 21.5375C164.413 21.3833 164.635 21.2677 164.822 21.1936C165.009 21.1194 165.196 21.0779 165.385 21.0779C165.658 21.0779 165.89 21.1965 166.076 21.4367C166.263 21.6768 166.358 21.9733 166.358 22.3321C166.358 22.6227 166.296 22.8747 166.165 23.0852C166.038 23.2987 165.827 23.4914 165.54 23.6604C165.012 24.0014 164.398 24.2712 163.698 24.4669C162.999 24.6626 162.284 24.7604 161.552 24.7604C160.306 24.7604 159.212 24.4965 158.267 23.9688H158.264Z" fill="#3A54A4"/>
<path d="M180.109 23.1741C180.109 23.5655 179.97 23.9154 179.688 24.2237C179.407 24.5321 179.078 24.6833 178.704 24.6833C178.331 24.6833 177.981 24.5291 177.654 24.2237L171.671 18.8038V23.1771C171.671 23.6722 171.517 24.0458 171.212 24.3008C170.906 24.5558 170.521 24.6833 170.061 24.6833C169.602 24.6833 169.222 24.5558 168.923 24.3008C168.623 24.0458 168.475 23.6693 168.475 23.1771V7.91349C168.475 7.41834 168.623 7.04476 168.923 6.78977C169.219 6.53478 169.602 6.40729 170.061 6.40729C170.521 6.40729 170.906 6.53478 171.212 6.78977C171.52 7.04476 171.671 7.42131 171.671 7.91349V17.5259L177.142 12.2838C177.447 11.9784 177.797 11.8243 178.191 11.8243C178.585 11.8243 178.924 11.9696 179.214 12.2601C179.505 12.5507 179.65 12.8917 179.65 13.283C179.65 13.6744 179.487 14.0332 179.164 14.3564L175.149 18.0892L179.597 22.0771C179.938 22.4003 180.107 22.7679 180.107 23.1771L180.109 23.1741Z" fill="#3A54A4"/>
<path d="M192.242 12.5655C193.087 13.1111 193.742 13.882 194.211 14.8782C194.679 15.8744 194.913 17.0219 194.913 18.3175C194.913 19.6132 194.679 20.7458 194.211 21.7184C193.742 22.6909 193.09 23.441 192.254 23.9688C191.418 24.4965 190.454 24.7604 189.366 24.7604C188.48 24.7604 187.688 24.5736 186.988 24.1971C186.288 23.8235 185.752 23.3016 185.378 22.6375V27.8529C185.378 28.2946 185.233 28.6445 184.942 28.9024C184.652 29.1574 184.269 29.2849 183.792 29.2849C183.315 29.2849 182.926 29.1485 182.63 28.8758C182.33 28.603 182.182 28.2442 182.182 27.8025V13.3068C182.182 12.8472 182.321 12.4795 182.603 12.2068C182.885 11.934 183.264 11.7976 183.742 11.7976C184.219 11.7976 184.601 11.934 184.892 12.2068C185.182 12.4795 185.328 12.8472 185.328 13.3068V13.9472C185.701 13.2475 186.244 12.7078 186.953 12.3224C187.658 11.9399 188.465 11.7472 189.369 11.7472C190.442 11.7472 191.403 12.02 192.245 12.5655H192.242ZM190.875 21.2469C191.439 20.5561 191.72 19.5806 191.72 18.3205C191.72 17.0604 191.439 16.0197 190.875 15.3051C190.312 14.5906 189.529 14.2318 188.524 14.2318C187.519 14.2318 186.712 14.5817 186.158 15.2814C185.604 15.9812 185.328 16.9774 185.328 18.2731C185.328 19.5688 185.604 20.5413 186.158 21.238C186.712 21.9378 187.501 22.2876 188.524 22.2876C189.547 22.2876 190.315 21.9437 190.875 21.2529V21.2469Z" fill="#3A54A4"/>
<path d="M199.886 23.9688C198.922 23.441 198.178 22.682 197.65 21.6946C197.122 20.7073 196.859 19.5569 196.859 18.2434C196.859 16.9299 197.122 15.7855 197.65 14.8041C198.178 13.8227 198.925 13.0696 199.886 12.5418C200.849 12.014 201.97 11.7502 203.248 11.7502C204.526 11.7502 205.647 12.014 206.61 12.5418C207.574 13.0696 208.315 13.8256 208.834 14.8041C209.353 15.7855 209.614 16.9299 209.614 18.2434C209.614 19.5569 209.353 20.7073 208.834 21.6946C208.315 22.682 207.574 23.441 206.61 23.9688C205.647 24.4965 204.526 24.7604 203.248 24.7604C201.97 24.7604 200.849 24.4965 199.886 23.9688ZM205.599 21.2588C206.145 20.5768 206.418 19.5717 206.418 18.2404C206.418 16.9092 206.145 15.9278 205.599 15.2369C205.054 14.5461 204.271 14.2022 203.248 14.2022C202.225 14.2022 201.436 14.5461 200.882 15.2369C200.328 15.9278 200.052 16.9299 200.052 18.2404C200.052 19.551 200.325 20.5768 200.87 21.2588C201.416 21.9407 202.198 22.2817 203.221 22.2817C204.244 22.2817 205.054 21.9407 205.599 21.2588Z" fill="#3A54A4"/>
<path d="M219.944 23.4825C219.944 23.8917 219.778 24.203 219.446 24.4164C219.113 24.6299 218.639 24.7189 218.025 24.6863L217.335 24.6359C214.47 24.4313 213.038 22.8984 213.038 20.0342V14.4601H211.76C211.301 14.4601 210.945 14.3593 210.699 14.1547C210.453 13.9501 210.328 13.6536 210.328 13.2593C210.328 12.865 210.453 12.5685 210.699 12.3639C210.945 12.1593 211.301 12.0585 211.76 12.0585H213.038V9.70728C213.038 9.24771 213.184 8.88006 213.474 8.60729C213.765 8.33451 214.156 8.19812 214.651 8.19812C215.146 8.19812 215.511 8.33451 215.802 8.60729C216.092 8.88006 216.237 9.24771 216.237 9.70728V12.0585H218.411C218.87 12.0585 219.226 12.1593 219.472 12.3639C219.718 12.5685 219.843 12.8679 219.843 13.2593C219.843 13.6507 219.718 13.9501 219.472 14.1547C219.226 14.3593 218.87 14.4601 218.411 14.4601H216.237V20.2625C216.237 21.5226 216.816 22.1987 217.975 22.2817L218.666 22.3321C219.517 22.3825 219.944 22.7679 219.944 23.4825Z" fill="#3A54A4"/>
</g>
<defs>
<clipPath id="clip0_169_19">
<rect width="320" height="34.9865" fill="white"/>
</clipPath>
</defs>
</svg>
