<svg width="300" height="48" viewBox="0 0 300 48" fill="none" xmlns="http://www.w3.org/2000/svg">
<g clip-path="url(#clip0_174_149)">
<path d="M17.2924 12.6954L5.65224 1.05929C3.59429 -0.998661 0.0808105 0.460904 0.0808105 3.36791V44.0054C0.0808105 45.6914 1.21693 47.2641 2.87865 47.5552C5.0296 47.9272 6.89752 46.2817 6.89752 44.1994V11.9393L17.2964 22.3302L27.5377 12.0889V30.0889C27.5377 31.7143 28.6415 33.1941 30.2344 33.5135C32.4258 33.9582 34.3544 32.2924 34.3544 30.1779V3.5256C34.3544 0.618592 30.8369 -0.840973 28.7789 1.21698L17.2964 12.6995L17.2924 12.6954Z" fill="#3953A4"/>
<path d="M41.3329 3.50943V30.4407C41.3329 36.1577 36.6954 40.7952 30.9784 40.7952C25.2614 40.7952 20.624 36.1577 20.624 30.4407V30.3962H13.8073V30.4407C13.8073 39.9218 21.4932 47.6119 30.9784 47.6119C40.4595 47.6119 48.1496 39.9259 48.1496 30.4407V3.50943C48.1496 1.62533 46.6253 0.101074 44.7412 0.101074C42.8571 0.101074 41.3329 1.62533 41.3329 3.50943Z" fill="#E97B24"/>
<path d="M84.6064 9.34365C85.0027 9.75201 85.2008 10.2897 85.2008 10.9649V31.6051C85.2008 32.256 85.0148 32.7695 84.6428 33.1375C84.2709 33.5094 83.7816 33.6954 83.1792 33.6954C82.5768 33.6954 82.0997 33.5094 81.7479 33.1375C81.3962 32.7655 81.2264 32.256 81.2264 31.6051V17.2399L75.2991 28.4676C75.0202 28.9811 74.7169 29.3571 74.3935 29.5997C74.066 29.8423 73.6859 29.9676 73.2412 29.9676C72.7965 29.9676 72.4164 29.8504 72.0889 29.6199C71.7614 29.3895 71.4622 29.0054 71.1832 28.4676L65.2196 17.4178V31.6091C65.2196 32.2358 65.0377 32.7412 64.6779 33.1253C64.318 33.5094 63.8369 33.6994 63.2304 33.6994C62.624 33.6994 62.1509 33.5135 61.7992 33.1415C61.4474 32.7695 61.2776 32.2601 61.2776 31.6091V10.969C61.2776 10.2938 61.4676 9.75605 61.8517 9.3477C62.2358 8.94339 62.7533 8.73718 63.4043 8.73718C64.3099 8.73718 65.0175 9.23854 65.531 10.2372L73.2695 24.9865L80.9757 10.2372C81.4851 9.23854 82.1725 8.73718 83.0337 8.73718C83.6846 8.73718 84.2062 8.93934 84.6024 9.3477L84.6064 9.34365Z" fill="#3A54A4"/>
<path d="M90.4286 12.3396C89.9636 11.9111 89.7332 11.345 89.7332 10.6496C89.7332 9.95418 89.9636 9.39624 90.4286 8.97575C90.8935 8.55931 91.5202 8.34906 92.3127 8.34906C93.1051 8.34906 93.6995 8.55931 94.1765 8.97575C94.6536 9.39219 94.8922 9.95014 94.8922 10.6496C94.8922 11.3491 94.6577 11.9111 94.1968 12.3396C93.7318 12.7682 93.1051 12.9865 92.3127 12.9865C91.5202 12.9865 90.8935 12.7722 90.4286 12.3396ZM90.7601 33.1536C90.3518 32.7938 90.1496 32.2763 90.1496 31.6011V18.1456C90.1496 17.4704 90.3518 16.9609 90.7601 16.6132C91.1685 16.2655 91.686 16.0916 92.3127 16.0916C92.9394 16.0916 93.465 16.2655 93.8814 16.6132C94.2978 16.9609 94.5081 17.4744 94.5081 18.1456V31.6011C94.5081 32.2763 94.2978 32.7938 93.8814 33.1536C93.465 33.5135 92.9394 33.6954 92.3127 33.6954C91.686 33.6954 91.1685 33.5135 90.7601 33.1536Z" fill="#3A54A4"/>
<path d="M115.007 16.6456C115.403 17.0175 115.601 17.5189 115.601 18.1455V31.9164C115.601 34.5889 114.857 36.6105 113.369 37.9811C111.881 39.3517 109.686 40.0391 106.779 40.0391C104.244 40.0391 102.129 39.562 100.435 38.6078C99.5741 38.0984 99.1455 37.4798 99.1455 36.7601C99.1455 36.2507 99.2668 35.8423 99.5135 35.5391C99.7561 35.2359 100.075 35.0863 100.472 35.0863C100.682 35.0863 100.937 35.1388 101.24 35.2439C101.543 35.349 101.854 35.4704 102.182 35.6119C103.019 35.9596 103.767 36.2264 104.43 36.4124C105.093 36.5984 105.853 36.6914 106.714 36.6914C109.759 36.6914 111.283 35.2035 111.283 32.2278V29.996C110.77 30.9501 110.03 31.686 109.051 32.2116C108.077 32.7331 106.961 32.9959 105.703 32.9959C104.216 32.9959 102.898 32.6401 101.745 31.9326C100.593 31.2251 99.6954 30.2304 99.0445 28.9528C98.3935 27.6752 98.0701 26.1995 98.0701 24.5256C98.0701 22.8517 98.3895 21.372 99.0283 20.0822C99.6671 18.7925 100.569 17.7938 101.729 17.0822C102.889 16.3747 104.216 16.0189 105.703 16.0189C106.957 16.0189 108.073 16.2817 109.051 16.8032C110.03 17.3248 110.77 18.0647 111.283 19.0189V18.1132C111.283 17.5108 111.481 17.0216 111.877 16.6496C112.274 16.2776 112.795 16.0916 113.446 16.0916C114.097 16.0916 114.619 16.2776 115.015 16.6496L115.007 16.6456ZM110.106 28.2534C110.887 27.3477 111.275 26.1024 111.275 24.5216C111.275 22.9407 110.887 21.6631 110.106 20.7574C109.326 19.8517 108.243 19.3989 106.848 19.3989C105.453 19.3989 104.394 19.8517 103.605 20.7574C102.813 21.6631 102.42 22.9205 102.42 24.5216C102.42 26.1226 102.817 27.3477 103.605 28.2534C104.394 29.159 105.477 29.6118 106.848 29.6118C108.218 29.6118 109.33 29.159 110.106 28.2534Z" fill="#3A54A4"/>
<path d="M136.063 23.0256V31.6011C136.063 32.252 135.873 32.7655 135.489 33.1334C135.105 33.5013 134.575 33.6914 133.904 33.6914C133.233 33.6914 132.695 33.5054 132.299 33.1334C131.903 32.7615 131.709 32.252 131.709 31.6011V23.0256C131.709 21.7925 131.458 20.8949 130.957 20.3248C130.456 19.7547 129.671 19.4717 128.604 19.4717C127.35 19.4717 126.344 19.8679 125.588 20.6563C124.832 21.4488 124.456 22.504 124.456 23.8302V31.6051C124.456 32.2561 124.257 32.7695 123.861 33.1375C123.465 33.5094 122.931 33.6954 122.256 33.6954C121.581 33.6954 121.051 33.5094 120.671 33.1375C120.287 32.7655 120.097 32.2561 120.097 31.6051V10.7547C120.097 10.1523 120.299 9.66308 120.708 9.29111C121.116 8.91914 121.642 8.73315 122.292 8.73315C122.943 8.73315 123.465 8.90701 123.861 9.25472C124.257 9.60243 124.456 10.0795 124.456 10.686V18.8086C125.038 17.903 125.81 17.2116 126.772 16.7345C127.735 16.2574 128.834 16.0189 130.067 16.0189C134.066 16.0189 136.063 18.3558 136.063 23.0256Z" fill="#3A54A4"/>
<path d="M151.092 32.0216C151.092 32.5795 150.865 33.0041 150.412 33.2952C149.96 33.5863 149.313 33.7076 148.48 33.6631L147.538 33.5944C143.632 33.3154 141.679 31.2251 141.679 27.3194V19.7183H139.937C139.31 19.7183 138.825 19.5809 138.489 19.3019C138.154 19.0229 137.984 18.6186 137.984 18.0809C137.984 17.5431 138.154 17.1388 138.489 16.8599C138.825 16.5809 139.31 16.4434 139.937 16.4434H141.679V13.2372C141.679 12.6105 141.877 12.1092 142.274 11.7372C142.67 11.3652 143.203 11.1793 143.879 11.1793C144.554 11.1793 145.051 11.3652 145.447 11.7372C145.844 12.1092 146.042 12.6105 146.042 13.2372V16.4434H149.005C149.632 16.4434 150.117 16.5809 150.453 16.8599C150.788 17.1388 150.958 17.5472 150.958 18.0809C150.958 18.6146 150.788 19.0229 150.453 19.3019C150.117 19.5809 149.632 19.7183 149.005 19.7183H146.042V27.6307C146.042 29.3491 146.83 30.2709 148.411 30.3841L149.353 30.4529C150.513 30.5216 151.096 31.0472 151.096 32.0216H151.092Z" fill="#3A54A4"/>
<path d="M166.274 16.4191C166.589 16.221 166.929 16.124 167.3 16.124C167.834 16.124 168.315 16.3059 168.748 16.6658C169.177 17.0256 169.391 17.4744 169.391 18.0081C169.391 18.2628 169.322 18.5297 169.181 18.8086L159.663 38.7493C159.267 39.5378 158.652 39.934 157.815 39.934C157.282 39.934 156.809 39.7642 156.404 39.4286C155.996 39.093 155.794 38.6685 155.794 38.155C155.794 37.9003 155.862 37.6092 156.004 37.2817L158.373 32.2965L151.888 18.8046C151.771 18.5741 151.714 18.3032 151.714 18.0041C151.714 17.4704 151.941 17.0175 152.393 16.6456C152.846 16.2736 153.364 16.0876 153.946 16.0876C154.342 16.0876 154.702 16.1887 155.026 16.3828C155.349 16.5809 155.608 16.8882 155.794 17.3086L160.674 28.0836L165.522 17.345C165.708 16.9286 165.958 16.6173 166.269 16.4232L166.274 16.4191Z" fill="#3A54A4"/>
<path d="M178.666 31.8477C178.666 31.2898 178.811 30.8652 179.102 30.5741C179.394 30.283 179.85 30.1172 180.481 30.0687L181.597 30C182.551 29.9555 183.271 29.6523 183.76 29.0943C184.249 28.5364 184.492 27.6873 184.492 26.5512V10.969C184.492 10.2938 184.694 9.75605 185.102 9.3477C185.507 8.94339 186.049 8.73718 186.724 8.73718C187.399 8.73718 187.973 8.93934 188.381 9.3477C188.786 9.75605 188.992 10.2938 188.992 10.969V26.5512C188.992 30.942 186.817 33.3032 182.474 33.6267L181.358 33.6954C179.567 33.7642 178.674 33.1496 178.674 31.8477H178.666Z" fill="#3A54A4"/>
<path d="M206.575 17.7776C207.728 18.9501 208.302 20.7372 208.302 23.1307V31.6375C208.302 32.2641 208.116 32.7574 207.744 33.1213C207.372 33.4811 206.858 33.6631 206.212 33.6631C205.605 33.6631 205.112 33.4771 204.728 33.1051C204.344 32.7332 204.154 32.2439 204.154 31.6415V30.8733C203.757 31.779 203.135 32.4906 202.29 33C201.441 33.5094 200.458 33.7682 199.342 33.7682C198.226 33.7682 197.167 33.5337 196.241 33.0728C195.311 32.6078 194.579 31.969 194.046 31.1563C193.512 30.3437 193.245 29.438 193.245 28.4353C193.245 27.1819 193.565 26.1914 194.203 25.4717C194.842 24.752 195.881 24.2264 197.325 23.903C198.764 23.5795 200.753 23.4137 203.288 23.4137H204.162V22.6132C204.162 21.473 203.919 20.6442 203.43 20.1186C202.941 19.593 202.152 19.3342 201.061 19.3342C200.385 19.3342 199.702 19.4353 199.003 19.6294C198.307 19.8275 197.478 20.1105 196.528 20.4825C195.922 20.7857 195.481 20.9353 195.202 20.9353C194.786 20.9353 194.442 20.7857 194.175 20.4825C193.908 20.1792 193.775 19.7871 193.775 19.2978C193.775 18.9016 193.872 18.562 194.07 18.2709C194.268 17.9798 194.6 17.7089 195.065 17.4501C195.877 17.0094 196.848 16.6617 197.976 16.403C199.104 16.1482 200.212 16.0189 201.307 16.0189C203.677 16.0189 205.439 16.6051 206.588 17.7776H206.575ZM203.054 29.4582C203.786 28.6779 204.154 27.6752 204.154 26.442V25.7102H203.527C201.97 25.7102 200.761 25.779 199.9 25.9205C199.039 26.062 198.424 26.3046 198.052 26.6523C197.681 27 197.495 27.4771 197.495 28.0835C197.495 28.8275 197.757 29.438 198.279 29.9151C198.8 30.3922 199.447 30.6307 200.216 30.6307C201.376 30.6307 202.326 30.2426 203.058 29.4623L203.054 29.4582Z" fill="#3A54A4"/>
<path d="M215.814 32.6846C214.524 31.965 213.53 30.942 212.834 29.6159C212.139 28.2898 211.787 26.7453 211.787 24.9784C211.787 23.2116 212.155 21.6509 212.887 20.2884C213.619 18.9299 214.645 17.8787 215.972 17.1348C217.298 16.3908 218.818 16.0189 220.54 16.0189C221.446 16.0189 222.36 16.1482 223.278 16.403C224.195 16.6577 225.004 17.0094 225.699 17.4501C226.443 17.9393 226.815 18.5539 226.815 19.2978C226.815 19.8113 226.694 20.2237 226.447 20.535C226.201 20.8464 225.885 21.004 225.489 21.004C225.234 21.004 224.968 20.9474 224.689 20.8302C224.41 20.7129 224.131 20.5755 223.852 20.4137C223.338 20.1105 222.853 19.872 222.388 19.6981C221.923 19.5243 221.389 19.4353 220.783 19.4353C219.344 19.4353 218.232 19.9043 217.455 20.8464C216.675 21.7884 216.287 23.1428 216.287 24.9097C216.287 26.6765 216.675 27.9946 217.455 28.9367C218.232 29.8787 219.344 30.3477 220.783 30.3477C221.365 30.3477 221.883 30.2628 222.335 30.0849C222.788 29.911 223.294 29.6725 223.852 29.3693C224.199 29.159 224.503 29.0013 224.757 28.9003C225.012 28.7992 225.267 28.7426 225.526 28.7426C225.897 28.7426 226.213 28.9043 226.468 29.2318C226.722 29.5593 226.852 29.9636 226.852 30.4528C226.852 30.8491 226.767 31.1927 226.589 31.4798C226.415 31.7709 226.128 32.0337 225.736 32.2641C225.016 32.7291 224.179 33.097 223.225 33.3639C222.271 33.6307 221.296 33.7641 220.298 33.7641C218.6 33.7641 217.108 33.4043 215.818 32.6846H215.814Z" fill="#3A54A4"/>
<path d="M245.604 31.6011C245.604 32.1348 245.414 32.6119 245.03 33.0323C244.646 33.4528 244.197 33.659 243.687 33.659C243.178 33.659 242.701 33.4488 242.256 33.0323L234.097 25.6415V31.6051C234.097 32.2803 233.887 32.7898 233.47 33.1375C233.054 33.4852 232.528 33.659 231.902 33.659C231.275 33.659 230.757 33.4852 230.349 33.1375C229.941 32.7898 229.739 32.2763 229.739 31.6051V10.7911C229.739 10.1159 229.941 9.60646 230.349 9.25875C230.753 8.91104 231.275 8.73718 231.902 8.73718C232.528 8.73718 233.054 8.91104 233.47 9.25875C233.891 9.60646 234.097 10.1199 234.097 10.7911V23.8989L241.557 16.7507C241.973 16.3342 242.45 16.124 242.988 16.124C243.526 16.124 243.987 16.3221 244.383 16.7183C244.779 17.1145 244.977 17.5795 244.977 18.1132C244.977 18.6469 244.755 19.1361 244.314 19.5768L238.84 24.6671L244.904 30.1051C245.369 30.5458 245.6 31.0472 245.6 31.6051L245.604 31.6011Z" fill="#3A54A4"/>
<path d="M262.148 17.1348C263.301 17.8787 264.194 18.9299 264.833 20.2884C265.472 21.6469 265.791 23.2116 265.791 24.9784C265.791 26.7453 265.472 28.2898 264.833 29.6159C264.194 30.942 263.305 31.965 262.164 32.6846C261.024 33.4043 259.71 33.7641 258.226 33.7641C257.018 33.7641 255.938 33.5094 254.984 32.9959C254.03 32.4865 253.298 31.7749 252.788 30.8693V37.9811C252.788 38.5836 252.59 39.0606 252.194 39.4124C251.798 39.7601 251.276 39.934 250.625 39.934C249.974 39.934 249.445 39.748 249.04 39.376C248.632 39.004 248.43 38.5148 248.43 37.9124V18.1455C248.43 17.5189 248.62 17.0175 249.004 16.6456C249.388 16.2736 249.906 16.0876 250.557 16.0876C251.208 16.0876 251.729 16.2736 252.125 16.6456C252.522 17.0175 252.72 17.5189 252.72 18.1455V19.0189C253.229 18.0647 253.969 17.3288 254.935 16.8032C255.898 16.2817 256.997 16.0189 258.23 16.0189C259.694 16.0189 261.004 16.3908 262.152 17.1348H262.148ZM260.284 28.973C261.053 28.031 261.437 26.7008 261.437 24.9825C261.437 23.2641 261.053 21.845 260.284 20.8706C259.516 19.8962 258.449 19.407 257.078 19.407C255.708 19.407 254.608 19.8841 253.852 20.8383C253.096 21.7924 252.72 23.1509 252.72 24.9178C252.72 26.6846 253.096 28.0108 253.852 28.9609C254.608 29.9151 255.683 30.3922 257.078 30.3922C258.473 30.3922 259.52 29.9232 260.284 28.9811V28.973Z" fill="#3A54A4"/>
<path d="M272.571 32.6847C271.257 31.965 270.243 30.9299 269.523 29.5836C268.803 28.2372 268.443 26.6685 268.443 24.8774C268.443 23.0863 268.803 21.5256 269.523 20.1873C270.243 18.8491 271.261 17.8221 272.571 17.1024C273.885 16.3828 275.414 16.0229 277.156 16.0229C278.899 16.0229 280.427 16.3828 281.741 17.1024C283.055 17.8221 284.066 18.8531 284.774 20.1873C285.481 21.5256 285.837 23.0863 285.837 24.8774C285.837 26.6685 285.481 28.2372 284.774 29.5836C284.066 30.9299 283.055 31.965 281.741 32.6847C280.427 33.4043 278.899 33.7642 277.156 33.7642C275.414 33.7642 273.885 33.4043 272.571 32.6847ZM280.362 28.9892C281.106 28.0593 281.478 26.6887 281.478 24.8733C281.478 23.058 281.106 21.7197 280.362 20.7776C279.619 19.8356 278.551 19.3666 277.156 19.3666C275.761 19.3666 274.686 19.8356 273.93 20.7776C273.174 21.7197 272.798 23.0863 272.798 24.8733C272.798 26.6604 273.17 28.0593 273.914 28.9892C274.658 29.9191 275.725 30.3841 277.12 30.3841C278.515 30.3841 279.619 29.9191 280.362 28.9892Z" fill="#3A54A4"/>
<path d="M299.923 32.0216C299.923 32.5795 299.697 33.0041 299.244 33.2952C298.791 33.5863 298.144 33.7076 297.307 33.6631L296.365 33.5944C292.46 33.3154 290.507 31.2251 290.507 27.3194V19.7183H288.764C288.137 19.7183 287.652 19.5809 287.317 19.3019C286.981 19.0229 286.811 18.6186 286.811 18.0809C286.811 17.5431 286.981 17.1388 287.317 16.8599C287.652 16.5809 288.137 16.4434 288.764 16.4434H290.507V13.2372C290.507 12.6105 290.705 12.1092 291.101 11.7372C291.497 11.3652 292.031 11.1793 292.706 11.1793C293.381 11.1793 293.879 11.3652 294.275 11.7372C294.671 12.1092 294.869 12.6105 294.869 13.2372V16.4434H297.833C298.46 16.4434 298.945 16.5809 299.28 16.8599C299.616 17.1388 299.786 17.5472 299.786 18.0809C299.786 18.6146 299.616 19.0229 299.28 19.3019C298.945 19.5809 298.46 19.7183 297.833 19.7183H294.869V27.6307C294.869 29.3491 295.658 30.2709 297.238 30.3841L298.181 30.4529C299.341 30.5216 299.923 31.0472 299.923 32.0216Z" fill="#3A54A4"/>
</g>
<defs>
<clipPath id="clip0_174_149">
<rect width="300" height="47.7089" fill="white"/>
</clipPath>
</defs>
</svg>
