<svg width="150" height="150" viewBox="0 0 150 150" fill="none" xmlns="http://www.w3.org/2000/svg">
<path fill-rule="evenodd" clip-rule="evenodd" d="M5.82728 2.84148L6.00016 3.06365L31 37.984C31.8072 39.1115 31.8834 40.6265 31.218 41.8294L31.0641 42.0819L9.06847 75L31.0641 107.918C31.8141 109.04 31.8641 110.509 31.2141 111.677L31.0641 111.923L7.73091 146.843C6.67522 148.423 4.59678 148.808 3.08864 147.702C1.65589 146.651 1.25323 144.633 2.12169 143.08L2.26941 142.838L24.2634 109.92L2.26941 77.0025C1.51956 75.8803 1.46957 74.4112 2.11944 73.2428L2.26941 72.9975L24.2167 40.1509L0.666859 7.25411C-0.382475 5.78836 -0.165569 3.73967 1.12144 2.54634L1.33352 2.36524C2.73263 1.26594 4.68822 1.49317 5.82728 2.84148ZM142.199 2.84148C143.398 1.49317 145.457 1.26594 146.93 2.36524L147.153 2.54634C148.508 3.73967 148.736 5.78836 147.631 7.25411L122.842 40.1509L145.944 72.9975L146.103 73.2428C146.787 74.4112 146.734 75.8803 145.944 77.0025L122.793 109.92L145.944 142.838L146.1 143.08C147.014 144.633 146.59 146.651 145.082 147.702C143.495 148.808 141.307 148.423 140.196 146.843L115.634 111.923L115.476 111.677C114.792 110.509 114.845 109.04 115.634 107.918L138.788 75L115.634 42.0819L115.472 41.8294C114.772 40.6265 114.852 39.1115 115.702 37.984L142.018 3.06365L142.199 2.84148ZM73.3334 20C87.1403 20 98.3334 31.1928 98.3334 45C98.3334 58.8072 87.1403 70 73.3334 70C59.5263 70 48.3334 58.8072 48.3334 45C48.3334 31.1928 59.5263 20 73.3334 20ZM73.3334 26.6666C63.2081 26.6666 55 34.8747 55 45C55 55.1253 63.2081 63.3334 73.3334 63.3334C83.4584 63.3334 91.6666 55.1253 91.6666 45C91.6666 34.8747 83.4584 26.6666 73.3334 26.6666ZM70.3441 31.8581C71.5669 29.3806 75.0997 29.3806 76.3225 31.8581L78.975 37.2334L84.9084 38.0959C87.5569 38.4809 88.6644 41.6462 86.9322 43.5969L86.7556 43.7819L82.4616 47.965L83.4763 53.875C83.9291 56.5156 81.2553 58.5481 78.8631 57.4965L78.6397 57.389L73.3334 54.5984L68.0269 57.389C65.6556 58.6356 62.8963 56.7209 63.1572 54.1206L63.1906 53.875L64.2034 47.965L59.9109 43.7819C57.9944 41.9134 58.9591 38.7019 61.5069 38.1419L61.7584 38.0959L67.69 37.2334L70.3441 31.8581ZM73.3334 40.865L72.8938 41.7559C72.4081 42.7397 71.4697 43.4215 70.3841 43.5794L69.4 43.7215L70.1122 44.4156C70.8325 45.1175 71.1938 46.1031 71.1059 47.0956L71.0709 47.3659L70.9016 48.3434L71.7822 47.8828C72.665 47.4187 73.7041 47.3765 74.6153 47.7562L74.8844 47.8828L75.7634 48.3434L75.5959 47.3659C75.4259 46.375 75.7128 45.365 76.3669 44.6137L76.5544 44.4156L77.265 43.7215L76.2828 43.5794C75.2875 43.4347 74.4159 42.8497 73.9038 41.9953L73.7728 41.7559L73.3334 40.865Z" fill="url(#paint0_linear_108_276)"/>
<path fill-rule="evenodd" clip-rule="evenodd" d="M39.9976 139.792C38.9619 139.792 38.1226 140.631 38.1226 141.667C38.1226 142.702 38.9619 143.542 39.9976 143.542C41.0332 143.542 41.8726 142.702 41.8726 141.667C41.8726 140.631 41.0332 139.792 39.9976 139.792ZM31.8726 141.667C31.8726 137.179 35.5104 133.542 39.9976 133.542C44.4851 133.542 48.1226 137.179 48.1226 141.667C48.1226 146.154 44.4851 149.792 39.9976 149.792C35.5104 149.792 31.8726 146.154 31.8726 141.667Z" fill="url(#paint1_linear_108_276)"/>
<path fill-rule="evenodd" clip-rule="evenodd" d="M73.335 139.792C72.2993 139.792 71.46 140.631 71.46 141.667C71.46 142.702 72.2993 143.542 73.335 143.542C74.3706 143.542 75.21 142.702 75.21 141.667C75.21 140.631 74.3706 139.792 73.335 139.792ZM65.21 141.667C65.21 137.179 68.8475 133.542 73.335 133.542C77.8221 133.542 81.46 137.179 81.46 141.667C81.46 146.154 77.8221 149.792 73.335 149.792C68.8475 149.792 65.21 146.154 65.21 141.667Z" fill="url(#paint2_linear_108_276)"/>
<path fill-rule="evenodd" clip-rule="evenodd" d="M106.672 139.792C105.637 139.792 104.797 140.631 104.797 141.667C104.797 142.702 105.637 143.542 106.672 143.542C107.708 143.542 108.547 142.702 108.547 141.667C108.547 140.631 107.708 139.792 106.672 139.792ZM98.5475 141.667C98.5475 137.179 102.185 133.542 106.672 133.542C111.16 133.542 114.797 137.179 114.797 141.667C114.797 146.154 111.16 149.792 106.672 149.792C102.185 149.792 98.5475 146.154 98.5475 141.667Z" fill="url(#paint3_linear_108_276)"/>
<path fill-rule="evenodd" clip-rule="evenodd" d="M56.6725 109.792C55.6369 109.792 54.7975 110.631 54.7975 111.667C54.7975 112.702 55.6369 113.542 56.6725 113.542C57.7078 113.542 58.5475 112.702 58.5475 111.667C58.5475 110.631 57.7078 109.792 56.6725 109.792ZM48.5475 111.667C48.5475 107.179 52.185 103.542 56.6725 103.542C61.1597 103.542 64.7975 107.179 64.7975 111.667C64.7975 116.154 61.1597 119.792 56.6725 119.792C52.185 119.792 48.5475 116.154 48.5475 111.667Z" fill="url(#paint4_linear_108_276)"/>
<path fill-rule="evenodd" clip-rule="evenodd" d="M89.9976 109.792C88.9619 109.792 88.1226 110.631 88.1226 111.667C88.1226 112.702 88.9619 113.542 89.9976 113.542C91.0332 113.542 91.8726 112.702 91.8726 111.667C91.8726 110.631 91.0332 109.792 89.9976 109.792ZM81.8726 111.667C81.8726 107.179 85.5104 103.542 89.9976 103.542C94.4851 103.542 98.1226 107.179 98.1226 111.667C98.1226 116.154 94.4851 119.792 89.9976 119.792C85.5104 119.792 81.8726 116.154 81.8726 111.667Z" fill="url(#paint5_linear_108_276)"/>
<path fill-rule="evenodd" clip-rule="evenodd" d="M39.9976 6.45828C38.9619 6.45828 38.1226 7.29775 38.1226 8.33328C38.1226 9.36881 38.9619 10.2083 39.9976 10.2083C41.0332 10.2083 41.8726 9.36881 41.8726 8.33328C41.8726 7.29775 41.0332 6.45828 39.9976 6.45828ZM31.8726 8.33328C31.8726 3.84597 35.5104 0.208282 39.9976 0.208282C44.4851 0.208282 48.1226 3.84597 48.1226 8.33328C48.1226 12.8206 44.4851 16.4583 39.9976 16.4583C35.5104 16.4583 31.8726 12.8206 31.8726 8.33328Z" fill="url(#paint6_linear_108_276)"/>
<path fill-rule="evenodd" clip-rule="evenodd" d="M106.672 6.45828C105.637 6.45828 104.797 7.29775 104.797 8.33328C104.797 9.36881 105.637 10.2083 106.672 10.2083C107.708 10.2083 108.547 9.36881 108.547 8.33328C108.547 7.29775 107.708 6.45828 106.672 6.45828ZM98.5475 8.33328C98.5475 3.84597 102.185 0.208282 106.672 0.208282C111.16 0.208282 114.797 3.84597 114.797 8.33328C114.797 12.8206 111.16 16.4583 106.672 16.4583C102.185 16.4583 98.5475 12.8206 98.5475 8.33328Z" fill="url(#paint7_linear_108_276)"/>
<path fill-rule="evenodd" clip-rule="evenodd" d="M73.335 6.45828C72.2993 6.45828 71.46 7.29775 71.46 8.33328C71.46 9.36881 72.2993 10.2083 73.335 10.2083C74.3706 10.2083 75.21 9.36881 75.21 8.33328C75.21 7.29775 74.3706 6.45828 73.335 6.45828ZM65.21 8.33328C65.21 3.84597 68.8475 0.208282 73.335 0.208282C77.8221 0.208282 81.46 3.84597 81.46 8.33328C81.46 12.8206 77.8221 16.4583 73.335 16.4583C68.8475 16.4583 65.21 12.8206 65.21 8.33328Z" fill="url(#paint8_linear_108_276)"/>
<path fill-rule="evenodd" clip-rule="evenodd" d="M39.9976 79.7916C38.9619 79.7916 38.1226 80.6313 38.1226 81.6666C38.1226 82.7022 38.9619 83.5416 39.9976 83.5416C41.0332 83.5416 41.8726 82.7022 41.8726 81.6666C41.8726 80.6313 41.0332 79.7916 39.9976 79.7916ZM31.8726 81.6666C31.8726 77.1794 35.5104 73.5416 39.9976 73.5416C44.4851 73.5416 48.1226 77.1794 48.1226 81.6666C48.1226 86.1541 44.4851 89.7916 39.9976 89.7916C35.5104 89.7916 31.8726 86.1541 31.8726 81.6666Z" fill="url(#paint9_linear_108_276)"/>
<path fill-rule="evenodd" clip-rule="evenodd" d="M73.335 79.7916C72.2993 79.7916 71.46 80.6313 71.46 81.6666C71.46 82.7022 72.2993 83.5416 73.335 83.5416C74.3706 83.5416 75.21 82.7022 75.21 81.6666C75.21 80.6313 74.3706 79.7916 73.335 79.7916ZM65.21 81.6666C65.21 77.1794 68.8475 73.5416 73.335 73.5416C77.8221 73.5416 81.46 77.1794 81.46 81.6666C81.46 86.1541 77.8221 89.7916 73.335 89.7916C68.8475 89.7916 65.21 86.1541 65.21 81.6666Z" fill="url(#paint10_linear_108_276)"/>
<path fill-rule="evenodd" clip-rule="evenodd" d="M106.672 79.7916C105.637 79.7916 104.797 80.6313 104.797 81.6666C104.797 82.7022 105.637 83.5416 106.672 83.5416C107.708 83.5416 108.547 82.7022 108.547 81.6666C108.547 80.6313 107.708 79.7916 106.672 79.7916ZM98.5475 81.6666C98.5475 77.1794 102.185 73.5416 106.672 73.5416C111.16 73.5416 114.797 77.1794 114.797 81.6666C114.797 86.1541 111.16 89.7916 106.672 89.7916C102.185 89.7916 98.5475 86.1541 98.5475 81.6666Z" fill="url(#paint11_linear_108_276)"/>
<defs>
<linearGradient id="paint0_linear_108_276" x1="74.1666" y1="1.66663" x2="74.1666" y2="148.333" gradientUnits="userSpaceOnUse">
<stop stop-color="#EA7B22"/>
<stop offset="1" stop-color="#D95A41"/>
</linearGradient>
<linearGradient id="paint1_linear_108_276" x1="39.9976" y1="133.542" x2="39.9976" y2="149.792" gradientUnits="userSpaceOnUse">
<stop stop-color="#EA7B22"/>
<stop offset="1" stop-color="#D95A41"/>
</linearGradient>
<linearGradient id="paint2_linear_108_276" x1="73.335" y1="133.542" x2="73.335" y2="149.792" gradientUnits="userSpaceOnUse">
<stop stop-color="#EA7B22"/>
<stop offset="1" stop-color="#D95A41"/>
</linearGradient>
<linearGradient id="paint3_linear_108_276" x1="106.672" y1="133.542" x2="106.672" y2="149.792" gradientUnits="userSpaceOnUse">
<stop stop-color="#EA7B22"/>
<stop offset="1" stop-color="#D95A41"/>
</linearGradient>
<linearGradient id="paint4_linear_108_276" x1="56.6725" y1="103.542" x2="56.6725" y2="119.792" gradientUnits="userSpaceOnUse">
<stop stop-color="#EA7B22"/>
<stop offset="1" stop-color="#D95A41"/>
</linearGradient>
<linearGradient id="paint5_linear_108_276" x1="89.9976" y1="103.542" x2="89.9976" y2="119.792" gradientUnits="userSpaceOnUse">
<stop stop-color="#EA7B22"/>
<stop offset="1" stop-color="#D95A41"/>
</linearGradient>
<linearGradient id="paint6_linear_108_276" x1="39.9976" y1="0.208282" x2="39.9976" y2="16.4583" gradientUnits="userSpaceOnUse">
<stop stop-color="#EA7B22"/>
<stop offset="1" stop-color="#D95A41"/>
</linearGradient>
<linearGradient id="paint7_linear_108_276" x1="106.672" y1="0.208282" x2="106.672" y2="16.4583" gradientUnits="userSpaceOnUse">
<stop stop-color="#EA7B22"/>
<stop offset="1" stop-color="#D95A41"/>
</linearGradient>
<linearGradient id="paint8_linear_108_276" x1="73.335" y1="0.208282" x2="73.335" y2="16.4583" gradientUnits="userSpaceOnUse">
<stop stop-color="#EA7B22"/>
<stop offset="1" stop-color="#D95A41"/>
</linearGradient>
<linearGradient id="paint9_linear_108_276" x1="39.9976" y1="73.5416" x2="39.9976" y2="89.7916" gradientUnits="userSpaceOnUse">
<stop stop-color="#EA7B22"/>
<stop offset="1" stop-color="#D95A41"/>
</linearGradient>
<linearGradient id="paint10_linear_108_276" x1="73.335" y1="73.5416" x2="73.335" y2="89.7916" gradientUnits="userSpaceOnUse">
<stop stop-color="#EA7B22"/>
<stop offset="1" stop-color="#D95A41"/>
</linearGradient>
<linearGradient id="paint11_linear_108_276" x1="106.672" y1="73.5416" x2="106.672" y2="89.7916" gradientUnits="userSpaceOnUse">
<stop stop-color="#EA7B22"/>
<stop offset="1" stop-color="#D95A41"/>
</linearGradient>
</defs>
</svg>
