<svg width="150" height="150" viewBox="0 0 150 150" fill="none" xmlns="http://www.w3.org/2000/svg">
<path d="M65.5336 7.53516L71.7498 56.3965H80.7586L86.9754 7.53516H65.5336ZM71.2371 61.4686V71.5028H81.2713V61.4686H71.2371ZM76.2633 84.8968C75.8409 84.8968 75.4184 84.9085 75 84.9155C74.6408 84.9214 74.2852 84.9322 73.9289 84.9431L73.6175 84.9518C73.2366 84.965 72.8596 84.9791 72.4825 84.9978C72.1301 85.0154 71.7785 85.0301 71.4296 85.0529C71.366 85.0564 71.3013 85.0579 71.2374 85.0617C59.671 85.7736 49.2741 88.8568 41.5831 92.6607C37.1886 94.8346 33.6818 97.2536 31.3937 99.4723C29.1062 101.692 28.2355 103.677 28.2355 104.545C28.2355 105.412 28.8882 106.685 31.0732 108.234C33.2587 109.783 36.743 111.362 41.1533 112.684C49.9735 115.328 62.4656 117.033 76.2636 117.033C90.0613 117.033 102.563 115.327 111.383 112.683C115.793 111.362 119.278 109.783 121.463 108.234C123.649 106.685 124.301 105.412 124.301 104.544C124.301 103.677 123.43 101.691 121.143 99.4723C118.855 97.2536 115.348 94.8346 110.953 92.6607C103.263 88.8571 92.8585 85.7739 81.2904 85.0623C81.2259 85.0579 81.1623 85.0573 81.0976 85.0535C80.7489 85.0307 80.3974 85.0154 80.0449 84.9978C79.6676 84.9794 79.2903 84.9656 78.9094 84.9524C78.8696 84.9507 78.8303 84.9442 78.7905 84.9428C78.7231 84.9407 78.6563 84.9448 78.5889 84.9428C78.2388 84.9325 77.8893 84.9211 77.536 84.9155C77.1147 84.9085 76.6893 84.8971 76.2633 84.8971V84.8968ZM76.2633 90.3724C83.9948 90.3724 90.9865 91.6644 95.8008 93.6038C98.2078 94.5735 100.055 95.7138 101.166 96.7717C102.276 97.8293 102.603 98.6452 102.603 99.3439C102.603 100.043 102.276 100.859 101.165 101.917C100.702 102.358 100.105 102.811 99.3988 103.263C97.9477 98.632 88.1423 95.0499 76.2542 95.0499C64.3729 95.0499 54.5786 98.627 53.1185 103.253C52.4165 102.804 51.8218 102.355 51.3607 101.916C50.2503 100.859 49.9234 100.043 49.9234 99.3442C49.9234 98.6449 50.25 97.829 51.3607 96.7711C52.4716 95.7135 54.3188 94.5732 56.7258 93.6035C61.5402 91.6641 68.5316 90.3721 76.2633 90.3721V90.3724ZM22.7783 104.956C16.3052 108.973 12.5426 113.763 12.5426 118.909C12.5426 133.082 41.0681 144.571 76.2545 144.571C111.44 144.571 139.966 133.081 139.966 118.908C139.966 113.77 136.214 108.987 129.758 104.974C129.579 108.115 127.456 110.699 124.631 112.701C121.678 114.794 117.725 116.497 112.949 117.929C103.395 120.793 90.5051 122.507 76.2639 122.507C62.0227 122.507 49.1329 120.793 39.5783 117.929C34.8015 116.497 30.8584 114.794 27.9056 112.702C25.0749 110.696 22.95 108.105 22.7786 104.956L22.7783 104.956Z" fill="url(#paint0_linear_93_240)"/>
<defs>
<linearGradient id="paint0_linear_93_240" x1="76.2542" y1="7.53516" x2="76.2542" y2="144.571" gradientUnits="userSpaceOnUse">
<stop stop-color="#EA7B22"/>
<stop offset="1" stop-color="#D95A41"/>
</linearGradient>
</defs>
</svg>
