<svg width="150" height="150" viewBox="0 0 150 150" fill="none" xmlns="http://www.w3.org/2000/svg">
<g clip-path="url(#clip0_93_234)">
<path d="M136.006 73.597C135.775 63.5048 133.089 54.0278 128.531 45.7134L128.571 45.6917L127.867 44.4759L127.163 43.2621L127.124 43.2858C122.045 34.9553 115.045 27.9542 106.714 22.8759L106.738 22.836L105.525 22.1347L104.308 21.4292L104.287 21.469C95.9733 16.911 86.4928 14.2245 76.4024 13.9934V13.9477H74.9994H73.5952V13.9934C63.5048 14.2248 54.0255 16.911 45.7145 21.469L45.6917 21.4292L44.4759 22.1347C44.4718 22.1367 44.4688 22.1405 44.465 22.1426L43.2633 22.836L43.2861 22.8759C34.9576 27.9542 27.9545 34.9553 22.8773 43.2858L22.8375 43.2621L22.1341 44.4759L21.4315 45.6917L21.4702 45.7134C16.9093 54.0261 14.2227 63.5048 13.9945 73.597H13.9476V75V76.403H13.9945C14.2227 86.4952 16.909 95.9739 21.469 104.285L21.4303 104.306L22.1329 105.524L22.8363 106.738L22.8764 106.712C27.9545 115.044 34.9567 122.046 43.2855 127.124L43.2624 127.164L44.4641 127.857C44.4679 127.859 44.4712 127.863 44.4753 127.865L45.6911 128.571L45.7151 128.531C54.0258 133.087 63.5053 135.773 73.5958 136.006V136.052H75H76.403V136.006C86.4934 135.773 95.9721 133.087 104.285 128.531L104.306 128.571L105.524 127.865L106.737 127.164L106.714 127.124C115.044 122.046 122.046 115.044 127.124 106.712L127.164 106.738L127.868 105.524L128.572 104.306L128.531 104.285C133.089 95.9739 135.776 86.4952 136.007 76.403H136.053V75V73.597H136.006ZM111.02 52.5809L100.522 58.6415C98.1597 54.9624 95.0329 51.8376 91.355 49.4777L97.4177 38.9807C102.926 42.4149 107.582 47.0745 111.02 52.5809ZM117.41 76.403C117.19 83.1132 115.413 89.4152 112.427 94.9913L101.928 88.9266C103.894 85.1479 105.093 80.9068 105.303 76.4027H117.41V76.403ZM76.4024 29.7375V16.8012C85.9898 17.0303 94.9799 19.5774 102.882 23.9001L96.4119 35.1026L96.3908 35.1425C90.4049 31.9198 83.6179 30.0044 76.4024 29.7832V29.7375ZM73.5955 32.5916V44.6971C69.0926 44.9042 64.8524 46.106 61.0717 48.0712L55.0128 37.5721C60.5833 34.5885 66.885 32.8107 73.5955 32.5916ZM44.6894 25.3072L51.1796 36.5476C45.2446 40.2325 40.2343 45.2411 36.5493 51.1799L36.5086 51.1538H36.5074L25.3066 44.6889C30.1377 36.7887 36.7884 30.1383 44.6894 25.3072ZM48.0706 61.0711C46.1053 64.8516 44.9056 69.0929 44.6965 73.597H32.5898C32.8101 66.8845 34.5879 60.5848 37.5723 55.0087L47.2661 60.607L48.0706 61.0711ZM35.1032 96.4125L23.8986 102.882C19.577 94.9793 17.03 85.9893 16.8017 76.403H29.7372H29.7841C30.0052 83.6174 31.9216 90.4055 35.1413 96.3905L35.1026 96.4125H35.1032ZM38.9786 97.4171L49.4765 91.3562C51.8402 95.0353 54.9662 98.1601 58.6432 100.522L52.5823 111.021C47.073 107.585 42.4166 102.925 38.9786 97.4171ZM73.5955 120.263V133.197C64.0101 132.968 55.0192 130.421 47.1178 126.1L53.608 114.859C59.5919 118.08 66.3791 119.993 73.5955 120.217V120.263ZM74.9994 102.545C69.9811 102.543 65.2974 101.182 61.241 98.8359C57.0615 96.4163 53.5831 92.9385 51.1646 88.7596C48.8168 84.702 47.4568 80.0186 47.4556 75C47.4568 69.9817 48.8168 65.2983 51.1646 61.2384C53.5834 57.0592 57.0618 53.5834 61.241 51.1641C65.2977 48.8162 69.9811 47.4571 74.9994 47.4551C80.0177 47.4551 84.7031 48.8183 88.7578 51.1641L88.7698 51.172C92.944 53.5875 96.4198 57.063 98.8362 61.2384C101.182 65.2983 102.543 69.9817 102.545 75C102.543 80.0183 101.182 84.7017 98.8362 88.7596C96.4157 92.9388 92.9379 96.4166 88.7598 98.8359C84.7013 101.182 80.0179 102.543 74.9994 102.545ZM76.4024 117.406V105.301C80.9077 105.096 85.1475 103.894 88.9274 101.929L94.9869 112.428C89.4137 115.412 83.1149 117.189 76.4024 117.406ZM105.309 124.693L98.8412 113.492H98.8432L98.8204 113.452C104.757 109.765 109.766 104.759 113.449 98.8201L113.49 98.8459V98.8438L113.877 99.0671L124.694 105.311C119.862 113.209 113.209 119.864 105.309 124.693ZM120.263 73.597H120.217C119.995 66.3806 118.076 59.5945 114.857 53.6077L126.099 47.1185C130.421 55.0204 132.97 64.0087 133.199 73.597H120.263Z" fill="url(#paint0_linear_93_234)"/>
<path d="M74.9994 0.000579834C33.5774 0.00263062 0.00205078 33.5801 0 75C0.00205078 116.422 33.5774 149.997 74.9994 149.999C116.419 149.997 149.998 116.422 150 75C149.998 33.5801 116.419 0.00263062 74.9994 0.000579834ZM124.308 124.31C111.681 136.936 94.2636 144.734 74.9994 144.736C55.7335 144.734 38.3168 136.936 25.6884 124.31C13.0649 111.683 5.26348 94.2639 5.2623 75C5.26348 55.7358 13.0649 38.3194 25.6884 25.6898C38.3168 13.0644 55.7335 5.26376 74.9994 5.26376C94.2636 5.26376 111.681 13.0644 124.308 25.6898C136.935 38.3191 144.734 55.7355 144.737 75C144.734 94.2639 136.935 111.683 124.308 124.31Z" fill="url(#paint1_linear_93_234)"/>
<path d="M94.0793 75C94.0793 72.3135 91.9031 70.1391 89.2166 70.1391C87.4359 70.1391 85.8844 71.1015 85.0383 72.5285H77.4721V64.9632C78.8982 64.1162 79.8627 62.5655 79.8627 60.7819C79.8627 58.0954 77.6854 55.9213 75 55.9213C72.3135 55.9213 70.1382 58.0954 70.1382 60.7819C70.1382 62.5655 71.1026 64.1162 72.5276 64.9632V72.5285H64.9623C64.1162 71.1015 62.5658 70.1391 60.7831 70.1391C58.0966 70.1391 55.9204 72.3135 55.9204 75C55.9204 77.6865 58.0966 79.8609 60.7831 79.8609C62.5655 79.8609 64.1162 78.8983 64.9623 77.4715H72.5276V85.0368C71.1026 85.8838 70.1382 87.4345 70.1382 89.216C70.1382 91.9025 72.3135 94.0787 75 94.0787C77.6854 94.0787 79.8627 91.9025 79.8627 89.216C79.8627 87.4345 78.8982 85.8838 77.4721 85.0368V77.4715H85.0383C85.8844 78.8983 87.4359 79.8609 89.2166 79.8609C91.9028 79.8609 94.0793 77.6865 94.0793 75Z" fill="url(#paint2_linear_93_234)"/>
<path d="M65.8966 43.5688C67.7124 43.5688 69.1851 42.0961 69.1851 40.2785C69.1851 38.463 67.7124 36.9902 65.8966 36.9902C64.079 36.9902 62.6071 38.4633 62.6071 40.2785C62.6071 42.0961 64.079 43.5688 65.8966 43.5688Z" fill="url(#paint3_linear_93_234)"/>
</g>
<defs>
<linearGradient id="paint0_linear_93_234" x1="75.0001" y1="13.9477" x2="75.0001" y2="136.052" gradientUnits="userSpaceOnUse">
<stop stop-color="#EA7B22"/>
<stop offset="1" stop-color="#D95A41"/>
</linearGradient>
<linearGradient id="paint1_linear_93_234" x1="75" y1="0.000579834" x2="75" y2="149.999" gradientUnits="userSpaceOnUse">
<stop stop-color="#EA7B22"/>
<stop offset="1" stop-color="#D95A41"/>
</linearGradient>
<linearGradient id="paint2_linear_93_234" x1="74.9999" y1="55.9213" x2="74.9999" y2="94.0787" gradientUnits="userSpaceOnUse">
<stop stop-color="#EA7B22"/>
<stop offset="1" stop-color="#D95A41"/>
</linearGradient>
<linearGradient id="paint3_linear_93_234" x1="65.8961" y1="36.9902" x2="65.8961" y2="43.5688" gradientUnits="userSpaceOnUse">
<stop stop-color="#EA7B22"/>
<stop offset="1" stop-color="#D95A41"/>
</linearGradient>
<clipPath id="clip0_93_234">
<rect width="150" height="150" fill="white"/>
</clipPath>
</defs>
</svg>
