<svg width="22" height="22" viewBox="0 0 22 22" fill="none" xmlns="http://www.w3.org/2000/svg">
<path d="M12.0267 22H9.97333C9.63762 21.9997 9.31365 21.8764 9.06267 21.6535C8.81168 21.4305 8.65106 21.1233 8.61117 20.79L8.39208 19.0703C7.9592 18.9298 7.53806 18.7554 7.13258 18.5488L5.76308 19.613C5.49866 19.8209 5.16691 19.924 4.83124 19.9027C4.49557 19.8814 4.17952 19.7371 3.9435 19.4975L2.49975 18.0538C2.26143 17.818 2.11829 17.5027 2.09767 17.168C2.07704 16.8334 2.18036 16.5029 2.38792 16.2397L3.45217 14.8693C3.24472 14.4641 3.07029 14.0429 2.93058 13.6098L1.20725 13.3907C0.874339 13.3495 0.567917 13.1882 0.345597 12.937C0.123277 12.6859 0.000375356 12.3621 0 12.0267L0 9.97333C0 9.27942 0.51975 8.69367 1.21 8.61117L2.92967 8.39208C3.07017 7.9592 3.24457 7.53806 3.45125 7.13258L2.38792 5.76308C2.17953 5.49864 2.07616 5.16655 2.09764 4.83055C2.11913 4.49455 2.26396 4.17833 2.50433 3.94258L3.94808 2.49883C4.18397 2.2607 4.49925 2.11768 4.8338 2.09706C5.16836 2.07644 5.49881 2.17964 5.76217 2.387L7.13167 3.45217C7.53739 3.24533 7.95884 3.07092 8.39208 2.93058L8.61117 1.20725C8.69367 0.51975 9.27942 0 9.97333 0H12.0267C12.7206 0 13.3063 0.51975 13.3888 1.21L13.6079 2.92967C14.0461 3.07175 14.4677 3.24683 14.8683 3.45125L16.2378 2.387C16.5022 2.17887 16.8341 2.07565 17.1699 2.09714C17.5057 2.11862 17.8217 2.26329 18.0574 2.50342L19.5012 3.94717C19.9934 4.42475 20.0429 5.20667 19.613 5.76125L18.5488 7.13167C18.7541 7.53225 18.9292 7.95392 19.0703 8.39117L20.7937 8.61025C21.1263 8.65137 21.4325 8.81259 21.6547 9.0636C21.8768 9.31462 21.9996 9.63813 22 9.97333V12.0267C22 12.7206 21.4803 13.3063 20.79 13.3888L19.0703 13.6079C18.9298 14.0408 18.7554 14.4619 18.5488 14.8674L19.613 16.2369C19.8211 16.5013 19.9243 16.8332 19.9029 17.169C19.8814 17.5048 19.7367 17.8208 19.4966 18.0565L18.0528 19.5003C17.8171 19.7388 17.5018 19.882 17.1672 19.9026C16.8325 19.9233 16.5019 19.8198 16.2388 19.6121L14.8683 18.5478C14.4632 18.7553 14.042 18.9297 13.6088 19.0694L13.3898 20.7928C13.3488 21.1256 13.1877 21.432 12.9367 21.6543C12.6856 21.8767 12.362 21.9996 12.0267 22ZM7.08583 17.545C7.16192 17.545 7.23983 17.5642 7.3095 17.6027C7.82395 17.8891 8.36958 18.1155 8.93567 18.2774C9.02172 18.3021 9.09866 18.3515 9.15698 18.4194C9.2153 18.4873 9.25245 18.5709 9.26383 18.6597L9.5205 20.6763C9.548 20.9064 9.74692 21.0833 9.97333 21.0833H12.0267C12.1378 21.0818 12.2447 21.0403 12.3277 20.9664C12.4107 20.8925 12.4643 20.7911 12.4786 20.6809L12.7362 18.6606C12.7476 18.5718 12.7847 18.4883 12.843 18.4203C12.9013 18.3524 12.9783 18.303 13.0643 18.2783C13.6304 18.1164 14.176 17.89 14.6905 17.6037C14.769 17.5598 14.8587 17.5401 14.9484 17.5469C15.0381 17.5538 15.1237 17.5869 15.1947 17.6422L16.7988 18.8888C16.8852 18.9584 16.9942 18.9936 17.105 18.9879C17.2158 18.9821 17.3205 18.9358 17.3993 18.8577L18.8522 17.4048C18.9316 17.326 18.9793 17.2208 18.9859 17.1091C18.9925 16.9974 18.9576 16.8873 18.8879 16.7997L17.6413 15.1956C17.5861 15.1246 17.553 15.0389 17.5462 14.9493C17.5393 14.8596 17.559 14.77 17.6027 14.6914C17.8891 14.177 18.1155 13.6313 18.2774 13.0653C18.3021 12.9792 18.3515 12.9023 18.4194 12.8439C18.4873 12.7856 18.5709 12.7485 18.6597 12.7371L20.6763 12.4804C20.7875 12.4665 20.8898 12.413 20.9646 12.3296C21.0394 12.2462 21.0815 12.1386 21.0833 12.0267V9.97333C21.0818 9.8622 21.0403 9.75533 20.9664 9.67232C20.8925 9.58932 20.7911 9.53574 20.6809 9.52142L18.6606 9.26383C18.5718 9.25245 18.4883 9.2153 18.4203 9.15698C18.3524 9.09866 18.303 9.02172 18.2783 8.93567C18.1164 8.36958 17.89 7.82395 17.6037 7.3095C17.5596 7.23106 17.5397 7.14131 17.5466 7.05159C17.5534 6.96186 17.5867 6.87617 17.6422 6.80533L18.8888 5.20117C18.9586 5.1151 18.9941 5.00628 18.9886 4.89562C18.983 4.78496 18.9367 4.68027 18.8586 4.60167L17.4057 3.14875C17.3273 3.06871 17.2219 3.02072 17.1101 3.01411C16.9982 3.0075 16.8879 3.04275 16.8007 3.113L15.1965 4.35967C15.1254 4.41501 15.0396 4.44818 14.9498 4.45503C14.8599 4.46188 14.7701 4.4421 14.6914 4.39817C14.1771 4.11154 13.6314 3.88516 13.0653 3.7235C12.9792 3.6988 12.9023 3.64944 12.8439 3.58151C12.7856 3.51358 12.7485 3.43005 12.7371 3.34125L12.4804 1.32458C12.4667 1.21329 12.4132 1.1107 12.3299 1.03574C12.2465 0.96077 12.1388 0.918481 12.0267 0.916667H9.97333C9.8622 0.918166 9.75533 0.959678 9.67232 1.03359C9.58932 1.10751 9.53574 1.20887 9.52142 1.31908L9.26383 3.33942C9.25239 3.4283 9.21523 3.51191 9.15694 3.57998C9.09864 3.64805 9.02174 3.69761 8.93567 3.72258C8.36952 3.88393 7.82386 4.11001 7.3095 4.39633C7.23093 4.4404 7.14113 4.46033 7.0513 4.45365C6.96147 4.44696 6.8756 4.41395 6.80442 4.35875L5.20025 3.11208C5.11419 3.04229 5.00537 3.00678 4.89471 3.01236C4.78404 3.01795 4.67935 3.06424 4.60075 3.14233L3.14783 4.59617C3.06835 4.67487 3.02074 4.78016 3.01414 4.89182C3.00754 5.00348 3.04242 5.11365 3.11208 5.20117L4.35875 6.80533C4.41391 6.87633 4.44697 6.96198 4.45381 7.05163C4.46066 7.14127 4.44099 7.23095 4.39725 7.3095C4.1105 7.82377 3.88411 8.36944 3.72258 8.93567C3.69788 9.02172 3.64852 9.09866 3.58059 9.15698C3.51266 9.2153 3.42914 9.25245 3.34033 9.26383L1.32367 9.5205C1.21254 9.53401 1.11007 9.58733 1.03524 9.67059C0.960413 9.75385 0.918287 9.8614 0.916667 9.97333V12.0267C0.916667 12.2531 1.09358 12.452 1.31908 12.4786L3.33942 12.7362C3.42822 12.7476 3.51174 12.7847 3.57967 12.843C3.6476 12.9013 3.69697 12.9783 3.72167 13.0643C3.88667 13.6382 4.114 14.1854 4.39633 14.6905C4.44042 14.7689 4.4603 14.8587 4.45345 14.9484C4.44659 15.0381 4.41332 15.1238 4.35783 15.1947L3.11117 16.7988C3.04138 16.8849 3.00586 16.9937 3.01144 17.1044C3.01703 17.215 3.06332 17.3197 3.14142 17.3983L4.59433 18.8513C4.67293 18.9309 4.77825 18.9787 4.88997 18.9853C5.00169 18.9919 5.1119 18.9569 5.19933 18.887L6.8035 17.6403C6.88485 17.5789 6.9839 17.5455 7.08583 17.545Z" fill="#EA7B22"/>
<path d="M11 15.5833C8.47271 15.5833 6.41663 13.5272 6.41663 11C6.41663 8.47275 8.47271 6.41666 11 6.41666C13.5272 6.41666 15.5833 8.47275 15.5833 11C15.5833 13.5272 13.5272 15.5833 11 15.5833ZM11 7.33333C8.97779 7.33333 7.33329 8.97783 7.33329 11C7.33329 13.0222 8.97779 14.6667 11 14.6667C13.0221 14.6667 14.6666 13.0222 14.6666 11C14.6666 8.97783 13.0221 7.33333 11 7.33333Z" fill="#EA7B22"/>
</svg>
