<svg width="20" height="24" viewBox="0 0 20 24" fill="none" xmlns="http://www.w3.org/2000/svg">
<path d="M0.564017 13.5627C0.579148 13.5643 0.594278 13.5648 0.609408 13.5648C0.860359 13.5648 1.07896 13.3838 1.12279 13.1318C1.15305 12.9581 1.90955 8.8698 5.82616 8.8698H13.1304V10.9567C13.1304 11.0578 13.1598 11.1567 13.2149 11.2414C13.2701 11.3261 13.3487 11.393 13.4411 11.4339C13.5336 11.4747 13.6359 11.4879 13.7357 11.4717C13.8355 11.4556 13.9284 11.4108 14.0032 11.3428L19.7422 6.12551C19.8507 6.02638 19.9128 5.88656 19.9128 5.73943C19.9128 5.5923 19.8507 5.45248 19.7422 5.35335L14.0032 0.136075C13.9285 0.0678952 13.8356 0.0229493 13.7359 0.00673404C13.6361 -0.0094812 13.5337 0.00373707 13.4413 0.0447722C13.3488 0.0856503 13.2701 0.152534 13.2149 0.237286C13.1597 0.322038 13.1303 0.421007 13.1304 0.522153V3.13079H5.82616C2.71562 3.13079 0.0871582 5.52031 0.0871582 8.34807V13.0436C0.0871325 13.1742 0.136126 13.3 0.224438 13.3961C0.312749 13.4922 0.433941 13.5517 0.564017 13.5627ZM1.13061 8.34807C1.13061 6.08586 3.28118 4.17425 5.82616 4.17425H13.6521C13.9406 4.17425 14.1738 3.94051 14.1738 3.65252V1.70178L18.6158 5.73943L14.1738 9.77708V8.34807C14.1738 8.06008 13.9406 7.82634 13.6521 7.82634H5.82616C3.39335 7.82634 1.95703 9.12858 1.13061 10.4209V8.34807Z" fill="#EA7B22"/>
<path d="M19.4359 10.4376C19.1672 10.412 18.9236 10.6009 18.8771 10.8685C18.8463 11.0423 18.0904 15.1305 14.1738 15.1305H7.39129V13.0436C7.39129 12.8412 7.27391 12.657 7.09078 12.5709C7.00098 12.5289 6.90106 12.5134 6.80274 12.5261C6.70442 12.5389 6.61177 12.5794 6.53566 12.6429L0.274929 17.8602C0.216162 17.9091 0.168879 17.9704 0.136429 18.0396C0.103979 18.1089 0.0871582 18.1844 0.0871582 18.2609C0.0871582 18.3374 0.103979 18.4129 0.136429 18.4821C0.168879 18.5514 0.216162 18.6127 0.274929 18.6616L6.53566 23.8789C6.62934 23.9571 6.74752 23.9999 6.86957 23.9999C6.946 23.9999 7.02151 23.9832 7.09078 23.9509C7.18056 23.9087 7.25648 23.8419 7.3097 23.7582C7.36291 23.6745 7.39121 23.5774 7.39129 23.4782V20.8695H14.1738C17.2848 20.8695 19.9128 18.48 19.9128 15.6523V10.9567C19.9128 10.8262 19.8638 10.7004 19.7755 10.6042C19.6872 10.5081 19.566 10.4486 19.4359 10.4376ZM18.8693 15.6523C18.8693 17.9145 16.7193 19.8261 14.1738 19.8261H6.86957C6.58157 19.8261 6.34784 20.0598 6.34784 20.3478V22.3643L1.42377 18.2609L6.34784 14.1575V15.6523C6.34784 15.9403 6.58157 16.174 6.86957 16.174H14.1738C16.6066 16.174 18.0429 14.8718 18.8693 13.5794V15.6523Z" fill="#EA7B22"/>
</svg>
